<svg xmlns="http://www.w3.org/2000/svg" viewBox="0 0 1200 800" width="1200" height="800" preserveAspectRatio="xMidYMid slice">
<title>Cinema de bairro ao entardecer — Cena 4</title><desc>Ilustração original em estilo aquarela de animação: Cinema de bairro ao entardecer — Cena 4.</desc>
<defs>
<linearGradient id="gSky" x1="0" y1="0" x2="0" y2="1"><stop offset="0" stop-color="#4fa9e8"/><stop offset=".55" stop-color="#9fd8f5"/><stop offset="1" stop-color="#eefaf0"/></linearGradient>
<radialGradient id="gSun"><stop offset="0" stop-color="#fff6c2"/><stop offset=".35" stop-color="#fffbe0" stop-opacity=".85"/><stop offset="1" stop-color="#fffbe0" stop-opacity="0"/></radialGradient>
<linearGradient id="gCloud" x1="0" y1="0" x2="0" y2="1"><stop offset="0" stop-color="#ffffff"/><stop offset="1" stop-color="#c7dff0"/></linearGradient>
<linearGradient id="gWater" x1="0" y1="0" x2="0" y2="1"><stop offset="0" stop-color="#6cc3e0"/><stop offset="1" stop-color="#3f97c4"/></linearGradient>
<linearGradient id="gShade" x1="0" y1="0" x2="0" y2="1"><stop offset="0" stop-color="#000" stop-opacity="0"/><stop offset="1" stop-color="#1b1030" stop-opacity=".28"/></linearGradient>
<linearGradient id="gRay" x1="0" y1="0" x2="0" y2="1"><stop offset="0" stop-color="#fff4c4" stop-opacity=".75"/><stop offset="1" stop-color="#fff4c4" stop-opacity="0"/></linearGradient>
<filter id="fGrain" x="0" y="0" width="100%" height="100%"><feTurbulence type="fractalNoise" baseFrequency=".9" numOctaves="2" seed="7" result="n"/><feColorMatrix in="n" type="matrix" values="0 0 0 0 .3  0 0 0 0 .25  0 0 0 0 .2  0 0 0 .55 -.18"/></filter>
<filter id="fSoft"><feGaussianBlur stdDeviation="6"/></filter>
<filter id="fSoft2"><feGaussianBlur stdDeviation="14"/></filter>
</defs>
<rect width="1200" height="800" fill="url(#gSky)"/>

<circle cx="1050" cy="328" r="166.4" fill="url(#gSun)"><animate attributeName="opacity" values="0.85;1;0.85" dur="6s" begin="0s" repeatCount="indefinite"/></circle>
<circle cx="1050" cy="328" r="52" fill="#fff6c2" opacity=".95"/>
<g transform="translate(0,141.85989867895842)" opacity="0.95"><g><animateTransform attributeName="transform" type="translate" from="-360 0" to="1560 0" dur="140s" begin="-30s" repeatCount="indefinite"/><g transform="translate(0,0) scale(1)">
<ellipse cx="0" cy="26" rx="160" ry="22" fill="#c7dff0" opacity=".45"/>
<circle cx="-84" cy="4" r="42" fill="url(#gCloud)"/><circle cx="-30" cy="-22" r="58" fill="url(#gCloud)"/>
<circle cx="38" cy="-10" r="50" fill="url(#gCloud)"/><circle cx="92" cy="8" r="36" fill="url(#gCloud)"/>
<ellipse cx="0" cy="14" rx="146" ry="24" fill="url(#gCloud)"/></g></g></g><g transform="translate(0,276.61414021393284)" opacity="0.85"><g><animateTransform attributeName="transform" type="translate" from="-251.99999999999997 0" to="1452 0" dur="190s" begin="-110s" repeatCount="indefinite"/><g transform="translate(0,0) scale(0.7)">
<ellipse cx="0" cy="26" rx="160" ry="22" fill="#c7dff0" opacity=".45"/>
<circle cx="-84" cy="4" r="42" fill="url(#gCloud)"/><circle cx="-30" cy="-22" r="58" fill="url(#gCloud)"/>
<circle cx="38" cy="-10" r="50" fill="url(#gCloud)"/><circle cx="92" cy="8" r="36" fill="url(#gCloud)"/>
<ellipse cx="0" cy="14" rx="146" ry="24" fill="url(#gCloud)"/></g></g></g><g transform="translate(0,78.12579712364823)" opacity="0.7"><g><animateTransform attributeName="transform" type="translate" from="-198.00000000000003 0" to="1398 0" dur="230s" begin="-170s" repeatCount="indefinite"/><g transform="translate(0,0) scale(0.55)">
<ellipse cx="0" cy="26" rx="160" ry="22" fill="#c7dff0" opacity=".45"/>
<circle cx="-84" cy="4" r="42" fill="url(#gCloud)"/><circle cx="-30" cy="-22" r="58" fill="url(#gCloud)"/>
<circle cx="38" cy="-10" r="50" fill="url(#gCloud)"/><circle cx="92" cy="8" r="36" fill="url(#gCloud)"/>
<ellipse cx="0" cy="14" rx="146" ry="24" fill="url(#gCloud)"/></g></g></g>

<path d="M-130,800 L-130,472.3 Q-130,472.3 -65,471.9 Q0,471.5 65,503.6 Q130,535.6 195,531.2 Q260,526.7 325,533 Q390,539.3 455,526.5 Q520,513.7 585,503.5 Q650,493.4 715,495.2 Q780,497.1 845,501.4 Q910,505.6 975,511 Q1040,516.4 1105,499.4 Q1170,482.4 1235,489.2 L1300,496 L1300,800 Z" fill="#9ccdb4"/><path d="M-130,800 L-130,575.8 Q-130,575.8 -65,571.8 Q0,567.9 65,562.1 Q130,556.3 195,588.1 Q260,620 325,586.8 Q390,553.6 455,567.2 Q520,580.8 585,571.4 Q650,562.1 715,555.6 Q780,549.1 845,550.3 Q910,551.4 975,583.8 Q1040,616.2 1105,603.7 Q1170,591.1 1235,574 L1300,557 L1300,800 Z" fill="#6fbb86"/><path d="M-130,800 L-130,666 Q-130,666 -65,679.4 Q0,692.9 65,681.7 Q130,670.6 195,664 Q260,657.5 325,656.6 Q390,655.7 455,654.5 Q520,653.4 585,674.5 Q650,695.7 715,680.4 Q780,665.2 845,658.3 Q910,651.3 975,670.1 Q1040,688.8 1105,665.7 Q1170,642.6 1235,644.7 L1300,646.7 L1300,800 Z" fill="#49a06b"/><g transform="translate(600,690)"><rect x="-270" y="-330" width="540" height="330" fill="#f8f0df"/><rect x="130" y="-330" width="140" height="330" fill="#e7dbc2" opacity=".6"/>
<rect x="-290" y="-350" width="580" height="30" fill="#b04a38"/><rect x="-200" y="-300" width="400" height="120" rx="8" fill="#1e2a52"/>
<rect x="-188" y="-288" width="376" height="96" rx="4" fill="#26386b"/><text x="0" y="-232" text-anchor="middle" font-family="Georgia,serif" font-weight="bold" font-size="54" fill="#ffd58a" letter-spacing="8">CINEMA<animate attributeName="opacity" values="1;.78;1;.9;1" dur="3s" repeatCount="indefinite"/></text>
<g transform="translate(0,-160)"><circle cx="-190" cy="0" r="5" fill="#ffd58a"><animate attributeName="opacity" values="1;.25;1" dur="1.4s" begin="0s" repeatCount="indefinite"/></circle><circle cx="-162.9" cy="0" r="5" fill="#ffd58a"><animate attributeName="opacity" values="1;.25;1" dur="1.4s" begin="-0.7s" repeatCount="indefinite"/></circle><circle cx="-135.7" cy="0" r="5" fill="#ffd58a"><animate attributeName="opacity" values="1;.25;1" dur="1.4s" begin="0s" repeatCount="indefinite"/></circle><circle cx="-108.6" cy="0" r="5" fill="#ffd58a"><animate attributeName="opacity" values="1;.25;1" dur="1.4s" begin="-0.7s" repeatCount="indefinite"/></circle><circle cx="-81.4" cy="0" r="5" fill="#ffd58a"><animate attributeName="opacity" values="1;.25;1" dur="1.4s" begin="0s" repeatCount="indefinite"/></circle><circle cx="-54.3" cy="0" r="5" fill="#ffd58a"><animate attributeName="opacity" values="1;.25;1" dur="1.4s" begin="-0.7s" repeatCount="indefinite"/></circle><circle cx="-27.1" cy="0" r="5" fill="#ffd58a"><animate attributeName="opacity" values="1;.25;1" dur="1.4s" begin="0s" repeatCount="indefinite"/></circle><circle cx="0" cy="0" r="5" fill="#ffd58a"><animate attributeName="opacity" values="1;.25;1" dur="1.4s" begin="-0.7s" repeatCount="indefinite"/></circle><circle cx="27.1" cy="0" r="5" fill="#ffd58a"><animate attributeName="opacity" values="1;.25;1" dur="1.4s" begin="0s" repeatCount="indefinite"/></circle><circle cx="54.3" cy="0" r="5" fill="#ffd58a"><animate attributeName="opacity" values="1;.25;1" dur="1.4s" begin="-0.7s" repeatCount="indefinite"/></circle><circle cx="81.4" cy="0" r="5" fill="#ffd58a"><animate attributeName="opacity" values="1;.25;1" dur="1.4s" begin="0s" repeatCount="indefinite"/></circle><circle cx="108.6" cy="0" r="5" fill="#ffd58a"><animate attributeName="opacity" values="1;.25;1" dur="1.4s" begin="-0.7s" repeatCount="indefinite"/></circle><circle cx="135.7" cy="0" r="5" fill="#ffd58a"><animate attributeName="opacity" values="1;.25;1" dur="1.4s" begin="0s" repeatCount="indefinite"/></circle><circle cx="162.9" cy="0" r="5" fill="#ffd58a"><animate attributeName="opacity" values="1;.25;1" dur="1.4s" begin="-0.7s" repeatCount="indefinite"/></circle><circle cx="190" cy="0" r="5" fill="#ffd58a"><animate attributeName="opacity" values="1;.25;1" dur="1.4s" begin="0s" repeatCount="indefinite"/></circle></g>
<path d="M-90,0 L-90,-100 Q0,-140 90,-100 L90,0 Z" fill="#25453f" opacity=".85"/><path d="M0,0 L0,-118" stroke="#b9ad96" stroke-width="3"/>
<rect x="-240" y="-110" width="100" height="120" fill="#26386b"/><rect x="-232" y="-102" width="84" height="104" fill="#e8687b" opacity=".85"/><path d="M-190,-72 l14,20 l-28,0 z" fill="#ffffff"/>
<rect x="140" y="-110" width="100" height="120" fill="#26386b"/><rect x="148" y="-102" width="84" height="104" fill="#5b7fd6" opacity=".85"/><circle cx="190" cy="-52" r="20" fill="#ffffff"/>
</g><path d="M150,470 L820,250 L820,600 Z" fill="#fff4c4" opacity=".0"><animate attributeName="opacity" values=".08;.22;.08" dur="2.2s" repeatCount="indefinite"/></path><path d="M-20,800 L-20,730 Q600,700 1220,730 L1220,800 Z" fill="#3b3a4a"/><path d="M0,768 L1200,768" stroke="#ffd58a" stroke-width="4" stroke-dasharray="40 30" opacity=".55"/><path d="M520,800 L560,700 L640,700 L680,800 Z" fill="#c62a3d"/><g transform="translate(230,780) scale(1.1)"><path d="M-26,0 L26,0 L20,-64 L-20,-64 Z" fill="#d21034"/><path d="M-13,0 L-8,-64 L-2,-64 L-4,0 Z M12,0 L8,-64 L2,-64 L4,0 Z" fill="#ffffff"/>
<circle cx="-16" cy="-74" r="12" fill="#fff4c4"><animate attributeName="cy" values="-74;-80;-74" dur="1.4s" repeatCount="indefinite"/></circle><circle cx="0" cy="-84" r="12" fill="#fff4c4"><animate attributeName="cy" values="-84;-90;-84" dur="1.7s" repeatCount="indefinite"/></circle><circle cx="16" cy="-74" r="12" fill="#fff4c4"><animate attributeName="cy" values="-74;-80;-74" dur="2s" repeatCount="indefinite"/></circle><circle cx="-6" cy="-68" r="12" fill="#fff4c4"><animate attributeName="cy" values="-68;-74;-68" dur="2.3s" repeatCount="indefinite"/></circle><circle cx="8" cy="-70" r="12" fill="#fff4c4"><animate attributeName="cy" values="-70;-76;-70" dur="2.5999999999999996s" repeatCount="indefinite"/></circle></g><g transform="translate(980,780) scale(0.9)"><path d="M-26,0 L26,0 L20,-64 L-20,-64 Z" fill="#d21034"/><path d="M-13,0 L-8,-64 L-2,-64 L-4,0 Z M12,0 L8,-64 L2,-64 L4,0 Z" fill="#ffffff"/>
<circle cx="-16" cy="-74" r="12" fill="#fff4c4"><animate attributeName="cy" values="-74;-80;-74" dur="1.4s" repeatCount="indefinite"/></circle><circle cx="0" cy="-84" r="12" fill="#fff4c4"><animate attributeName="cy" values="-84;-90;-84" dur="1.7s" repeatCount="indefinite"/></circle><circle cx="16" cy="-74" r="12" fill="#fff4c4"><animate attributeName="cy" values="-74;-80;-74" dur="2s" repeatCount="indefinite"/></circle><circle cx="-6" cy="-68" r="12" fill="#fff4c4"><animate attributeName="cy" values="-68;-74;-68" dur="2.3s" repeatCount="indefinite"/></circle><circle cx="8" cy="-70" r="12" fill="#fff4c4"><animate attributeName="cy" values="-70;-76;-70" dur="2.5999999999999996s" repeatCount="indefinite"/></circle></g><path d="M0,-12 L3.5,-4 L12,-3 L5.5,3 L7.5,12 L0,7.5 L-7.5,12 L-5.5,3 L-12,-3 L-3.5,-4 Z" transform="translate(420,560) scale(0.7)" fill="#f4b942" opacity="0"><animate attributeName="opacity" values="0;1;0" dur="3s" begin="0s" repeatCount="indefinite"/></path><path d="M0,-12 L3.5,-4 L12,-3 L5.5,3 L7.5,12 L0,7.5 L-7.5,12 L-5.5,3 L-12,-3 L-3.5,-4 Z" transform="translate(482,600) scale(0.9)" fill="#f4b942" opacity="0"><animate attributeName="opacity" values="0;1;0" dur="4s" begin="-0.5s" repeatCount="indefinite"/></path><path d="M0,-12 L3.5,-4 L12,-3 L5.5,3 L7.5,12 L0,7.5 L-7.5,12 L-5.5,3 L-12,-3 L-3.5,-4 Z" transform="translate(544,560) scale(1.1)" fill="#f4b942" opacity="0"><animate attributeName="opacity" values="0;1;0" dur="5s" begin="-1s" repeatCount="indefinite"/></path><path d="M0,-12 L3.5,-4 L12,-3 L5.5,3 L7.5,12 L0,7.5 L-7.5,12 L-5.5,3 L-12,-3 L-3.5,-4 Z" transform="translate(606,600) scale(0.7)" fill="#f4b942" opacity="0"><animate attributeName="opacity" values="0;1;0" dur="6s" begin="-1.5s" repeatCount="indefinite"/></path><path d="M0,-12 L3.5,-4 L12,-3 L5.5,3 L7.5,12 L0,7.5 L-7.5,12 L-5.5,3 L-12,-3 L-3.5,-4 Z" transform="translate(668,560) scale(0.9)" fill="#f4b942" opacity="0"><animate attributeName="opacity" values="0;1;0" dur="3s" begin="-2s" repeatCount="indefinite"/></path><path d="M0,-12 L3.5,-4 L12,-3 L5.5,3 L7.5,12 L0,7.5 L-7.5,12 L-5.5,3 L-12,-3 L-3.5,-4 Z" transform="translate(730,600) scale(1.1)" fill="#f4b942" opacity="0"><animate attributeName="opacity" values="0;1;0" dur="4s" begin="-2.5s" repeatCount="indefinite"/></path><path d="M0,-12 L3.5,-4 L12,-3 L5.5,3 L7.5,12 L0,7.5 L-7.5,12 L-5.5,3 L-12,-3 L-3.5,-4 Z" transform="translate(792,560) scale(0.7)" fill="#f4b942" opacity="0"><animate attributeName="opacity" values="0;1;0" dur="5s" begin="-3s" repeatCount="indefinite"/></path><path d="M0,-12 L3.5,-4 L12,-3 L5.5,3 L7.5,12 L0,7.5 L-7.5,12 L-5.5,3 L-12,-3 L-3.5,-4 Z" transform="translate(854,600) scale(0.9)" fill="#f4b942" opacity="0"><animate attributeName="opacity" values="0;1;0" dur="6s" begin="-3.5s" repeatCount="indefinite"/></path><path d="M0,-12 L3.5,-4 L12,-3 L5.5,3 L7.5,12 L0,7.5 L-7.5,12 L-5.5,3 L-12,-3 L-3.5,-4 Z" transform="translate(916,560) scale(1.1)" fill="#f4b942" opacity="0"><animate attributeName="opacity" values="0;1;0" dur="3s" begin="-4s" repeatCount="indefinite"/></path><path d="M0,-12 L3.5,-4 L12,-3 L5.5,3 L7.5,12 L0,7.5 L-7.5,12 L-5.5,3 L-12,-3 L-3.5,-4 Z" transform="translate(978,600) scale(0.7)" fill="#f4b942" opacity="0"><animate attributeName="opacity" values="0;1;0" dur="4s" begin="-4.5s" repeatCount="indefinite"/></path><path d="M0,-12 L3.5,-4 L12,-3 L5.5,3 L7.5,12 L0,7.5 L-7.5,12 L-5.5,3 L-12,-3 L-3.5,-4 Z" transform="translate(1040,560) scale(0.9)" fill="#f4b942" opacity="0"><animate attributeName="opacity" values="0;1;0" dur="5s" begin="-5s" repeatCount="indefinite"/></path><path d="M0,-12 L3.5,-4 L12,-3 L5.5,3 L7.5,12 L0,7.5 L-7.5,12 L-5.5,3 L-12,-3 L-3.5,-4 Z" transform="translate(1102,600) scale(1.1)" fill="#f4b942" opacity="0"><animate attributeName="opacity" values="0;1;0" dur="6s" begin="-5.5s" repeatCount="indefinite"/></path><g transform="translate(90,740) scale(0.75)">
<path d="M-9,0 Q-6,-60 -3,-100 L6,-100 Q8,-60 12,0 Z" fill="#8c5b3c"/>
<g><animateTransform attributeName="transform" type="rotate" values="-1.6 0 -90;1.6 0 -90;-1.6 0 -90" keyTimes="0;.5;1" calcMode="spline" keySplines=".45 0 .55 1;.45 0 .55 1" dur="5s" begin="0s" repeatCount="indefinite"/>
<circle cx="-42" cy="-118" r="46" fill="#2f7a45"/><circle cx="40" cy="-122" r="48" fill="#2f7a45"/>
<circle cx="0" cy="-152" r="56" fill="#4c9c5a"/><circle cx="-38" cy="-134" r="38" fill="#4c9c5a"/>
<circle cx="36" cy="-138" r="40" fill="#4c9c5a"/><circle cx="-6" cy="-168" r="34" fill="#8fd07a" opacity=".85"/>
<circle cx="24" cy="-150" r="22" fill="#8fd07a" opacity=".7"/></g></g><g transform="translate(1120,740) scale(0.75)">
<path d="M-9,0 Q-6,-60 -3,-100 L6,-100 Q8,-60 12,0 Z" fill="#8c5b3c"/>
<g><animateTransform attributeName="transform" type="rotate" values="-1.4 0 -90;1.4 0 -90;-1.4 0 -90" keyTimes="0;.5;1" calcMode="spline" keySplines=".45 0 .55 1;.45 0 .55 1" dur="6s" begin="-1s" repeatCount="indefinite"/>
<circle cx="-42" cy="-118" r="46" fill="#2f7a45"/><circle cx="40" cy="-122" r="48" fill="#2f7a45"/>
<circle cx="0" cy="-152" r="56" fill="#4c9c5a"/><circle cx="-38" cy="-134" r="38" fill="#4c9c5a"/>
<circle cx="36" cy="-138" r="40" fill="#4c9c5a"/><circle cx="-6" cy="-168" r="34" fill="#8fd07a" opacity=".85"/>
<circle cx="24" cy="-150" r="22" fill="#8fd07a" opacity=".7"/></g></g><circle cx="903.7" cy="435.1" r="3.1" fill="#fff4c4" opacity=".0"><animate attributeName="opacity" values="0;.95;0" dur="6.3s" begin="-0.35641944345552473s" repeatCount="indefinite"/><animate attributeName="cy" values="435.1;401.1;435.1" dur="6.3s" begin="-1.8607447734102607s" repeatCount="indefinite"/></circle><circle cx="419.7" cy="443.6" r="3" fill="#fff4c4" opacity=".0"><animate attributeName="opacity" values="0;.95;0" dur="8.6s" begin="-2.8295008392538876s" repeatCount="indefinite"/><animate attributeName="cy" values="443.6;409.6;443.6" dur="8.6s" begin="-0.9568938706070185s" repeatCount="indefinite"/></circle><circle cx="190.7" cy="547" r="4.2" fill="#fff4c4" opacity=".0"><animate attributeName="opacity" values="0;.95;0" dur="6.4s" begin="-0.06824866384267807s" repeatCount="indefinite"/><animate attributeName="cy" values="547;513;547" dur="6.4s" begin="-0.9743805499747396s" repeatCount="indefinite"/></circle><circle cx="738.8" cy="672.4" r="3.7" fill="#fff4c4" opacity=".0"><animate attributeName="opacity" values="0;.95;0" dur="7.3s" begin="-3.776134879817255s" repeatCount="indefinite"/><animate attributeName="cy" values="672.4;638.4;672.4" dur="7.3s" begin="-1.2970202788710594s" repeatCount="indefinite"/></circle><circle cx="682" cy="674.2" r="2.1" fill="#fff4c4" opacity=".0"><animate attributeName="opacity" values="0;.95;0" dur="6.3s" begin="-3.1356881964253263s" repeatCount="indefinite"/><animate attributeName="cy" values="674.2;640.2;674.2" dur="6.3s" begin="-0.8198041571304202s" repeatCount="indefinite"/></circle><circle cx="592.9" cy="250" r="4" fill="#fff4c4" opacity=".0"><animate attributeName="opacity" values="0;.95;0" dur="7.3s" begin="-2.238080664933659s" repeatCount="indefinite"/><animate attributeName="cy" values="250;216;250" dur="7.3s" begin="-1.9019438084214926s" repeatCount="indefinite"/></circle><circle cx="864.5" cy="423.3" r="4" fill="#fff4c4" opacity=".0"><animate attributeName="opacity" values="0;.95;0" dur="6.6s" begin="-1.9878227978479117s" repeatCount="indefinite"/><animate attributeName="cy" values="423.3;389.3;423.3" dur="6.6s" begin="-1.3032231563702226s" repeatCount="indefinite"/></circle><circle cx="1138.1" cy="472" r="3.1" fill="#fff4c4" opacity=".0"><animate attributeName="opacity" values="0;.95;0" dur="6.1s" begin="-1.6390195472398772s" repeatCount="indefinite"/><animate attributeName="cy" values="472;438;472" dur="6.1s" begin="-0.6727488823235035s" repeatCount="indefinite"/></circle><circle cx="1035" cy="243.9" r="1.8" fill="#fff4c4" opacity=".0"><animate attributeName="opacity" values="0;.95;0" dur="5.4s" begin="-1.05824991655536s" repeatCount="indefinite"/><animate attributeName="cy" values="243.9;209.9;243.9" dur="5.4s" begin="-1.7470819866284728s" repeatCount="indefinite"/></circle><circle cx="122.6" cy="367.7" r="3.4" fill="#fff4c4" opacity=".0"><animate attributeName="opacity" values="0;.95;0" dur="8.3s" begin="-7.735011859121733s" repeatCount="indefinite"/><animate attributeName="cy" values="367.7;333.7;367.7" dur="8.3s" begin="-1.174498500302434s" repeatCount="indefinite"/></circle><circle cx="377.7" cy="402.3" r="1.7" fill="#fff4c4" opacity=".0"><animate attributeName="opacity" values="0;.95;0" dur="6.5s" begin="-0.7871031624963507s" repeatCount="indefinite"/><animate attributeName="cy" values="402.3;368.3;402.3" dur="6.5s" begin="-0.43876801896840334s" repeatCount="indefinite"/></circle><circle cx="496.8" cy="264.8" r="3.7" fill="#fff4c4" opacity=".0"><animate attributeName="opacity" values="0;.95;0" dur="5.4s" begin="-3.6236259761732073s" repeatCount="indefinite"/><animate attributeName="cy" values="264.8;230.8;264.8" dur="5.4s" begin="-0.33435435593128204s" repeatCount="indefinite"/></circle><circle cx="954.5" cy="287.1" r="3.3" fill="#fff4c4" opacity=".0"><animate attributeName="opacity" values="0;.95;0" dur="4.5s" begin="-0.07741127104964107s" repeatCount="indefinite"/><animate attributeName="cy" values="287.1;253.1;287.1" dur="4.5s" begin="-0.47033323626965284s" repeatCount="indefinite"/></circle><circle cx="1087.2" cy="359" r="2.5" fill="#fff4c4" opacity=".0"><animate attributeName="opacity" values="0;.95;0" dur="4.3s" begin="-0.5557321077911183s" repeatCount="indefinite"/><animate attributeName="cy" values="359;325;359" dur="4.3s" begin="-0.977587578818202s" repeatCount="indefinite"/></circle><circle cx="835.9" cy="499.8" r="1.8" fill="#fff4c4" opacity=".0"><animate attributeName="opacity" values="0;.95;0" dur="5.4s" begin="-3.3809836516622456s" repeatCount="indefinite"/><animate attributeName="cy" values="499.8;465.8;499.8" dur="5.4s" begin="-1.5879815379157662s" repeatCount="indefinite"/></circle><circle cx="838.4" cy="638.8" r="2.6" fill="#fff4c4" opacity=".0"><animate attributeName="opacity" values="0;.95;0" dur="8.8s" begin="-0.8303720710799098s" repeatCount="indefinite"/><animate attributeName="cy" values="638.8;604.8;638.8" dur="8.8s" begin="-1.1702301017940044s" repeatCount="indefinite"/></circle><circle cx="995.5" cy="222.8" r="2.4" fill="#fff4c4" opacity=".0"><animate attributeName="opacity" values="0;.95;0" dur="4.5s" begin="-3.5957525692647323s" repeatCount="indefinite"/><animate attributeName="cy" values="222.8;188.8;222.8" dur="4.5s" begin="-0.2700716694816947s" repeatCount="indefinite"/></circle><circle cx="879.6" cy="479.8" r="3.6" fill="#fff4c4" opacity=".0"><animate attributeName="opacity" values="0;.95;0" dur="7s" begin="-0.007019586628302932s" repeatCount="indefinite"/><animate attributeName="cy" values="479.8;445.8;479.8" dur="7s" begin="-0.8371166530996561s" repeatCount="indefinite"/></circle><circle cx="97.3" cy="237.4" r="3.1" fill="#fff4c4" opacity=".0"><animate attributeName="opacity" values="0;.95;0" dur="7s" begin="-0.7748000065330416s" repeatCount="indefinite"/><animate attributeName="cy" values="237.4;203.4;237.4" dur="7s" begin="-0.7523857774212956s" repeatCount="indefinite"/></circle><circle cx="820.5" cy="659.2" r="2.5" fill="#fff4c4" opacity=".0"><animate attributeName="opacity" values="0;.95;0" dur="5.9s" begin="-2.835052130906843s" repeatCount="indefinite"/><animate attributeName="cy" values="659.2;625.2;659.2" dur="5.9s" begin="-0.6240673735737801s" repeatCount="indefinite"/></circle><circle cx="177.3" cy="483.3" r="3.2" fill="#fff4c4" opacity=".0"><animate attributeName="opacity" values="0;.95;0" dur="7.3s" begin="-6.026296858000569s" repeatCount="indefinite"/><animate attributeName="cy" values="483.3;449.3;483.3" dur="7.3s" begin="-0.21941358875483274s" repeatCount="indefinite"/></circle><circle cx="1073" cy="584.3" r="3" fill="#fff4c4" opacity=".0"><animate attributeName="opacity" values="0;.95;0" dur="8.5s" begin="-5.361113833379932s" repeatCount="indefinite"/><animate attributeName="cy" values="584.3;550.3;584.3" dur="8.5s" begin="-0.4729610588401556s" repeatCount="indefinite"/></circle><g transform="translate(0,130) scale(1)"><g><animateTransform attributeName="transform" type="translate" from="-120 0" to="1320 0" dur="60s" begin="-14s" repeatCount="indefinite"/>
<path d="M-12,0 Q-6,-9 0,0 Q6,-9 12,0" fill="none" stroke="#25453f" stroke-width="2.2" stroke-linecap="round">
<animate attributeName="d" values="M-12,0 Q-6,-9 0,0 Q6,-9 12,0;M-12,-3 Q-6,4 0,0 Q6,4 12,-3;M-12,0 Q-6,-9 0,0 Q6,-9 12,0" dur="0.9s" repeatCount="indefinite"/></path></g></g>
<rect width="1200" height="800" fill="url(#gShade)" opacity=".55"/>
<rect width="1200" height="800" filter="url(#fGrain)" opacity=".5" style="mix-blend-mode:multiply"/>
</svg>