<svg xmlns="http://www.w3.org/2000/svg" viewBox="0 0 1200 800" width="1200" height="800" preserveAspectRatio="xMidYMid slice">
<title>Montanhas, rio e bússola — Cena 8</title><desc>Ilustração original em estilo aquarela de animação: Montanhas, rio e bússola — Cena 8.</desc>
<defs>
<linearGradient id="gSky" x1="0" y1="0" x2="0" y2="1"><stop offset="0" stop-color="#4d4a94"/><stop offset=".55" stop-color="#e58aa0"/><stop offset="1" stop-color="#ffd9a0"/></linearGradient>
<radialGradient id="gSun"><stop offset="0" stop-color="#fff0b8"/><stop offset=".35" stop-color="#ffc48a" stop-opacity=".85"/><stop offset="1" stop-color="#ffc48a" stop-opacity="0"/></radialGradient>
<linearGradient id="gCloud" x1="0" y1="0" x2="0" y2="1"><stop offset="0" stop-color="#ffd7c4"/><stop offset="1" stop-color="#b8749a"/></linearGradient>
<linearGradient id="gWater" x1="0" y1="0" x2="0" y2="1"><stop offset="0" stop-color="#7a9fd0"/><stop offset="1" stop-color="#4b6aa8"/></linearGradient>
<linearGradient id="gShade" x1="0" y1="0" x2="0" y2="1"><stop offset="0" stop-color="#000" stop-opacity="0"/><stop offset="1" stop-color="#1b1030" stop-opacity=".28"/></linearGradient>
<linearGradient id="gRay" x1="0" y1="0" x2="0" y2="1"><stop offset="0" stop-color="#ffd9a0" stop-opacity=".75"/><stop offset="1" stop-color="#ffd9a0" stop-opacity="0"/></linearGradient>
<filter id="fGrain" x="0" y="0" width="100%" height="100%"><feTurbulence type="fractalNoise" baseFrequency=".9" numOctaves="2" seed="7" result="n"/><feColorMatrix in="n" type="matrix" values="0 0 0 0 .3  0 0 0 0 .25  0 0 0 0 .2  0 0 0 .55 -.18"/></filter>
<filter id="fSoft"><feGaussianBlur stdDeviation="6"/></filter>
<filter id="fSoft2"><feGaussianBlur stdDeviation="14"/></filter>
</defs>
<rect width="1200" height="800" fill="url(#gSky)"/>
<circle cx="1021.3" cy="72.1" r="1.5" fill="#fff8e6" opacity=".2"><animate attributeName="opacity" values=".15;.95;.15" dur="3.7s" begin="-0.24430525866337122s" repeatCount="indefinite"/></circle><circle cx="286.7" cy="127.8" r="1.7" fill="#fff8e6" opacity=".2"><animate attributeName="opacity" values=".15;.95;.15" dur="5.4s" begin="-4.0638067710679024s" repeatCount="indefinite"/></circle><circle cx="1031.2" cy="171" r="2.2" fill="#fff8e6" opacity=".2"><animate attributeName="opacity" values=".15;.95;.15" dur="3.7s" begin="-1.3364011929370463s" repeatCount="indefinite"/></circle><circle cx="249.4" cy="244.3" r="1.5" fill="#fff8e6" opacity=".2"><animate attributeName="opacity" values=".15;.95;.15" dur="2.9s" begin="-2.8005112732527775s" repeatCount="indefinite"/></circle><circle cx="335.9" cy="240.3" r="0.9" fill="#fff8e6" opacity=".2"><animate attributeName="opacity" values=".15;.95;.15" dur="2.2s" begin="-0.7097218749113382s" repeatCount="indefinite"/></circle><circle cx="503.6" cy="37" r="2.3" fill="#fff8e6" opacity=".2"><animate attributeName="opacity" values=".15;.95;.15" dur="4.8s" begin="-3.8786492507904766s" repeatCount="indefinite"/></circle><circle cx="1044.3" cy="64.4" r="1" fill="#fff8e6" opacity=".2"><animate attributeName="opacity" values=".15;.95;.15" dur="4.9s" begin="-3.056208155862987s" repeatCount="indefinite"/></circle><circle cx="33.6" cy="317.6" r="1.9" fill="#fff8e6" opacity=".2"><animate attributeName="opacity" values=".15;.95;.15" dur="5.2s" begin="-0.45691668083891274s" repeatCount="indefinite"/></circle><circle cx="845.9" cy="296.2" r="1.8" fill="#fff8e6" opacity=".2"><animate attributeName="opacity" values=".15;.95;.15" dur="2.4s" begin="-1.2537580590695143s" repeatCount="indefinite"/></circle><circle cx="899.9" cy="37.6" r="2.2" fill="#fff8e6" opacity=".2"><animate attributeName="opacity" values=".15;.95;.15" dur="2s" begin="-0.9086341322399676s" repeatCount="indefinite"/></circle><circle cx="420.7" cy="225.1" r="2.3" fill="#fff8e6" opacity=".2"><animate attributeName="opacity" values=".15;.95;.15" dur="5.6s" begin="-0.676780254393816s" repeatCount="indefinite"/></circle><circle cx="123.2" cy="46.5" r="1.4" fill="#fff8e6" opacity=".2"><animate attributeName="opacity" values=".15;.95;.15" dur="5.5s" begin="-1.871758577064611s" repeatCount="indefinite"/></circle><circle cx="1144.1" cy="158.9" r="1.5" fill="#fff8e6" opacity=".2"><animate attributeName="opacity" values=".15;.95;.15" dur="5.9s" begin="-3.619886037381366s" repeatCount="indefinite"/></circle><circle cx="1098.1" cy="176.8" r="2" fill="#fff8e6" opacity=".2"><animate attributeName="opacity" values=".15;.95;.15" dur="4.9s" begin="-3.404538678028621s" repeatCount="indefinite"/></circle><circle cx="661.2" cy="93.1" r="1.6" fill="#fff8e6" opacity=".2"><animate attributeName="opacity" values=".15;.95;.15" dur="2.7s" begin="-0.6335148900747299s" repeatCount="indefinite"/></circle><circle cx="359.9" cy="93.8" r="1.6" fill="#fff8e6" opacity=".2"><animate attributeName="opacity" values=".15;.95;.15" dur="3.9s" begin="-3.620570355397649s" repeatCount="indefinite"/></circle><circle cx="366.6" cy="276.5" r="0.9" fill="#fff8e6" opacity=".2"><animate attributeName="opacity" values=".15;.95;.15" dur="4.3s" begin="-2.5043089799117295s" repeatCount="indefinite"/></circle><circle cx="396.2" cy="24.6" r="1.9" fill="#fff8e6" opacity=".2"><animate attributeName="opacity" values=".15;.95;.15" dur="6s" begin="-1.9048976744525135s" repeatCount="indefinite"/></circle><circle cx="643.6" cy="254" r="1.5" fill="#fff8e6" opacity=".2"><animate attributeName="opacity" values=".15;.95;.15" dur="2.1s" begin="-0.7931507905013859s" repeatCount="indefinite"/></circle><circle cx="123" cy="100.7" r="1" fill="#fff8e6" opacity=".2"><animate attributeName="opacity" values=".15;.95;.15" dur="5.1s" begin="-2.2537677330197763s" repeatCount="indefinite"/></circle><circle cx="244.6" cy="207.8" r="1.4" fill="#fff8e6" opacity=".2"><animate attributeName="opacity" values=".15;.95;.15" dur="3s" begin="-0.9610904292203486s" repeatCount="indefinite"/></circle><circle cx="302" cy="88" r="2.3" fill="#fff8e6" opacity=".2"><animate attributeName="opacity" values=".15;.95;.15" dur="4.2s" begin="-2.639901843527332s" repeatCount="indefinite"/></circle><circle cx="230.7" cy="257.7" r="1.7" fill="#fff8e6" opacity=".2"><animate attributeName="opacity" values=".15;.95;.15" dur="2.1s" begin="-1.7906380439177156s" repeatCount="indefinite"/></circle><circle cx="449" cy="185.3" r="1.8" fill="#fff8e6" opacity=".2"><animate attributeName="opacity" values=".15;.95;.15" dur="3s" begin="-2.7244852187577635s" repeatCount="indefinite"/></circle><circle cx="186.8" cy="83.6" r="2.3" fill="#fff8e6" opacity=".2"><animate attributeName="opacity" values=".15;.95;.15" dur="2.9s" begin="-0.3947365036699921s" repeatCount="indefinite"/></circle><circle cx="936.6" cy="54.7" r="1.3" fill="#fff8e6" opacity=".2"><animate attributeName="opacity" values=".15;.95;.15" dur="4.1s" begin="-0.8952174657257274s" repeatCount="indefinite"/></circle><circle cx="181.5" cy="99.6" r="2" fill="#fff8e6" opacity=".2"><animate attributeName="opacity" values=".15;.95;.15" dur="5.3s" begin="-3.7567515446804465s" repeatCount="indefinite"/></circle><circle cx="705.5" cy="42" r="0.9" fill="#fff8e6" opacity=".2"><animate attributeName="opacity" values=".15;.95;.15" dur="3.1s" begin="-1.7717437133425846s" repeatCount="indefinite"/></circle><circle cx="710.8" cy="134.8" r="0.9" fill="#fff8e6" opacity=".2"><animate attributeName="opacity" values=".15;.95;.15" dur="2.3s" begin="-2.1367455976549534s" repeatCount="indefinite"/></circle><circle cx="1152.5" cy="150.1" r="1" fill="#fff8e6" opacity=".2"><animate attributeName="opacity" values=".15;.95;.15" dur="5.1s" begin="-1.0845519215567037s" repeatCount="indefinite"/></circle><circle cx="633.2" cy="110.4" r="1.8" fill="#fff8e6" opacity=".2"><animate attributeName="opacity" values=".15;.95;.15" dur="3.8s" begin="-2.7969728372991085s" repeatCount="indefinite"/></circle><circle cx="413.4" cy="48.7" r="1.6" fill="#fff8e6" opacity=".2"><animate attributeName="opacity" values=".15;.95;.15" dur="3.7s" begin="-1.7741627365117894s" repeatCount="indefinite"/></circle><circle cx="844" cy="269.5" r="2.2" fill="#fff8e6" opacity=".2"><animate attributeName="opacity" values=".15;.95;.15" dur="5.1s" begin="-1.4753537229727953s" repeatCount="indefinite"/></circle><circle cx="508.2" cy="134.9" r="1.4" fill="#fff8e6" opacity=".2"><animate attributeName="opacity" values=".15;.95;.15" dur="4s" begin="-2.849827711470425s" repeatCount="indefinite"/></circle><circle cx="724.7" cy="157.8" r="1.9" fill="#fff8e6" opacity=".2"><animate attributeName="opacity" values=".15;.95;.15" dur="4.4s" begin="-4.345297607406974s" repeatCount="indefinite"/></circle><circle cx="310.5" cy="224" r="1.3" fill="#fff8e6" opacity=".2"><animate attributeName="opacity" values=".15;.95;.15" dur="2.1s" begin="-0.4245169480098412s" repeatCount="indefinite"/></circle><circle cx="610.6" cy="165.9" r="1.4" fill="#fff8e6" opacity=".2"><animate attributeName="opacity" values=".15;.95;.15" dur="2.5s" begin="-0.10127221117727458s" repeatCount="indefinite"/></circle><circle cx="344.4" cy="144.6" r="1.7" fill="#fff8e6" opacity=".2"><animate attributeName="opacity" values=".15;.95;.15" dur="3.8s" begin="-1.426033587520942s" repeatCount="indefinite"/></circle><circle cx="1027.7" cy="106.9" r="1.7" fill="#fff8e6" opacity=".2"><animate attributeName="opacity" values=".15;.95;.15" dur="2.8s" begin="-1.3197185136377811s" repeatCount="indefinite"/></circle><circle cx="651.4" cy="2.4" r="1.6" fill="#fff8e6" opacity=".2"><animate attributeName="opacity" values=".15;.95;.15" dur="2.2s" begin="-0.5798904750961811s" repeatCount="indefinite"/></circle><circle cx="825" cy="105.9" r="1.4" fill="#fff8e6" opacity=".2"><animate attributeName="opacity" values=".15;.95;.15" dur="5.2s" begin="-5.149169219471514s" repeatCount="indefinite"/></circle><circle cx="305.2" cy="299.9" r="2.3" fill="#fff8e6" opacity=".2"><animate attributeName="opacity" values=".15;.95;.15" dur="3.6s" begin="-1.228568281698972s" repeatCount="indefinite"/></circle><circle cx="1156.3" cy="42.4" r="1.6" fill="#fff8e6" opacity=".2"><animate attributeName="opacity" values=".15;.95;.15" dur="5.1s" begin="-4.5952826161868865s" repeatCount="indefinite"/></circle><circle cx="1035.4" cy="269.8" r="1.2" fill="#fff8e6" opacity=".2"><animate attributeName="opacity" values=".15;.95;.15" dur="3.6s" begin="-0.4084747768007219s" repeatCount="indefinite"/></circle><circle cx="1109.2" cy="293.4" r="1.1" fill="#fff8e6" opacity=".2"><animate attributeName="opacity" values=".15;.95;.15" dur="4.9s" begin="-4.43001591837965s" repeatCount="indefinite"/></circle><circle cx="147.7" cy="250.3" r="1.7" fill="#fff8e6" opacity=".2"><animate attributeName="opacity" values=".15;.95;.15" dur="4.7s" begin="-4.4988008077954875s" repeatCount="indefinite"/></circle>
<circle cx="1114" cy="112" r="204.8" fill="url(#gSun)"><animate attributeName="opacity" values="0.85;1;0.85" dur="6s" begin="0s" repeatCount="indefinite"/></circle>
<circle cx="1114" cy="112" r="64" fill="#fff0b8" opacity=".95"/>
<g transform="translate(0,147.43927877396345)" opacity="0.7"><g><animateTransform attributeName="transform" type="translate" from="-360 0" to="1560 0" dur="140s" begin="-30s" repeatCount="indefinite"/><g transform="translate(0,0) scale(1)">
<ellipse cx="0" cy="26" rx="160" ry="22" fill="#b8749a" opacity=".45"/>
<circle cx="-84" cy="4" r="42" fill="url(#gCloud)"/><circle cx="-30" cy="-22" r="58" fill="url(#gCloud)"/>
<circle cx="38" cy="-10" r="50" fill="url(#gCloud)"/><circle cx="92" cy="8" r="36" fill="url(#gCloud)"/>
<ellipse cx="0" cy="14" rx="146" ry="24" fill="url(#gCloud)"/></g></g></g><g transform="translate(0,248.67993803462014)" opacity="0.6"><g><animateTransform attributeName="transform" type="translate" from="-251.99999999999997 0" to="1452 0" dur="190s" begin="-110s" repeatCount="indefinite"/><g transform="translate(0,0) scale(0.7)">
<ellipse cx="0" cy="26" rx="160" ry="22" fill="#b8749a" opacity=".45"/>
<circle cx="-84" cy="4" r="42" fill="url(#gCloud)"/><circle cx="-30" cy="-22" r="58" fill="url(#gCloud)"/>
<circle cx="38" cy="-10" r="50" fill="url(#gCloud)"/><circle cx="92" cy="8" r="36" fill="url(#gCloud)"/>
<ellipse cx="0" cy="14" rx="146" ry="24" fill="url(#gCloud)"/></g></g></g><g transform="translate(0,91.39628483448178)" opacity="0.5"><g><animateTransform attributeName="transform" type="translate" from="-198.00000000000003 0" to="1398 0" dur="230s" begin="-170s" repeatCount="indefinite"/><g transform="translate(0,0) scale(0.55)">
<ellipse cx="0" cy="26" rx="160" ry="22" fill="#b8749a" opacity=".45"/>
<circle cx="-84" cy="4" r="42" fill="url(#gCloud)"/><circle cx="-30" cy="-22" r="58" fill="url(#gCloud)"/>
<circle cx="38" cy="-10" r="50" fill="url(#gCloud)"/><circle cx="92" cy="8" r="36" fill="url(#gCloud)"/>
<ellipse cx="0" cy="14" rx="146" ry="24" fill="url(#gCloud)"/></g></g></g>
<ellipse cx="880" cy="230" rx="180" ry="30" fill="none" stroke="#ffffff" stroke-width="1.4" opacity=".22" transform="rotate(-14)"/><ellipse cx="880" cy="230" rx="180" ry="56" fill="none" stroke="#ffffff" stroke-width="1.4" opacity=".22" transform="rotate(-14)"/><ellipse cx="880" cy="230" rx="180" ry="82" fill="none" stroke="#ffffff" stroke-width="1.4" opacity=".22" transform="rotate(-14)"/><ellipse cx="880" cy="230" rx="180" ry="108" fill="none" stroke="#ffffff" stroke-width="1.4" opacity=".22" transform="rotate(-14)"/><ellipse cx="880" cy="230" rx="180" ry="134" fill="none" stroke="#ffffff" stroke-width="1.4" opacity=".22" transform="rotate(-14)"/><path d="M0,560 L300,270 L600,560 Z" fill="#8b7cab"/><path d="M300,270 L600,560 L360,560 Z" fill="#000" opacity=".12"/><path d="M300,270 L234,351.20000000000005 L276,333.79999999999995 L306,368.6 L336,339.6 L366,351.20000000000005 Z" fill="#ffffff"/><path d="M360,560 L700,220 L1040,560 Z" fill="#6b7a9a"/><path d="M700,220 L1040,560 L768,560 Z" fill="#000" opacity=".12"/><path d="M700,220 L625.2,315.20000000000005 L672.8,294.8 L706.8,335.6 L740.8,301.6 L774.8,315.20000000000005 Z" fill="#ffffff"/><path d="M780,560 L1040,320 L1300,560 Z" fill="#8b7cab"/><path d="M1040,320 L1300,560 L1092,560 Z" fill="#000" opacity=".12"/><path d="M1040,320 L982.8,387.20000000000005 L1019.2,372.79999999999995 L1045.2,401.6 L1071.2,377.6 L1097.2,387.20000000000005 Z" fill="#ffffff"/><path d="M290,580 L520,370 L750,580 Z" fill="#4f6f7c"/><path d="M520,370 L750,580 L566,580 Z" fill="#000" opacity=".12"/><path d="M520,370 L469.4,428.8 L501.6,416.2 L524.6,441.4 L547.6,420.4 L570.6,428.8 Z" fill="#f4f8ff"/><path d="M-130,800 L-130,584 Q-130,584 -65,586 Q0,588.1 65,579.6 Q130,571.2 195,580.1 Q260,589 325,601.3 Q390,613.5 455,595.9 Q520,578.2 585,585.5 Q650,592.9 715,596.5 Q780,600.2 845,587.5 Q910,574.8 975,573.2 Q1040,571.5 1105,585.2 Q1170,598.8 1235,582.5 L1300,566.3 L1300,800 Z" fill="#4f6f7c"/><g transform="translate(140,640) scale(0.9)"><rect x="-4" y="-16" width="8" height="16" fill="#6e4a3a"/>
<path d="M0,-118 L-34,-50 L34,-50 Z" fill="#2f5c54"/><path d="M0,-92 L-42,-22 L42,-22 Z" fill="#4f8a6a"/>
<path d="M0,-66 L-50,0 L50,0 Z" fill="#2f5c54"/></g><g transform="translate(220,650) scale(0.7)"><rect x="-4" y="-16" width="8" height="16" fill="#6e4a3a"/>
<path d="M0,-118 L-34,-50 L34,-50 Z" fill="#2f5c54"/><path d="M0,-92 L-42,-22 L42,-22 Z" fill="#4f8a6a"/>
<path d="M0,-66 L-50,0 L50,0 Z" fill="#2f5c54"/></g><g transform="translate(1080,640) scale(0.9)"><rect x="-4" y="-16" width="8" height="16" fill="#6e4a3a"/>
<path d="M0,-118 L-34,-50 L34,-50 Z" fill="#2f5c54"/><path d="M0,-92 L-42,-22 L42,-22 Z" fill="#4f8a6a"/>
<path d="M0,-66 L-50,0 L50,0 Z" fill="#2f5c54"/></g><path d="M-20,800 L-20,660 Q400,610 700,650 Q980,680 1220,640 L1220,800 Z" fill="#3b5a5e"/><path d="M610,600 C560,640 700,660 640,700 C580,740 500,730 470,800 L640,800 C660,750 760,730 720,690 C690,660 660,640 670,600 Z" fill="url(#gWater)"/><path d="M630,610 C590,650 690,668 626,708 C570,748 520,750 500,800" fill="none" stroke="#ffffff" stroke-width="3" opacity=".6" stroke-dasharray="14 18"><animate attributeName="stroke-dashoffset" values="0;-64" dur="2.4s" repeatCount="indefinite"/></path><g transform="translate(316,286)"><path d="M0,0 L0,-42" stroke="#6e4a3a" stroke-width="3"/><g><path d="M0,-42 L28,-34 L0,-24 Z" fill="#f27b8f"><animate attributeName="d" values="M0,-42 L28,-34 L0,-24 Z;M0,-42 L24,-38 L0,-24 Z;M0,-42 L28,-34 L0,-24 Z" dur="1.1s" repeatCount="indefinite"/></path></g><circle cx="-12" cy="-12" r="6" fill="#8a5a3c"/><rect x="-18" y="-6" width="14" height="20" rx="5" fill="#7a86e0"/></g><g transform="translate(200,210)"><g><animateTransform attributeName="transform" type="translate" values="0 0;6 -8;0 0" keyTimes="0;.5;1" calcMode="spline" keySplines=".45 0 .55 1;.45 0 .55 1" dur="5s" begin="0s" repeatCount="indefinite"/><circle r="58" fill="#f6e2cc" opacity=".92"/><circle r="58" fill="none" stroke="#a06a4c" stroke-width="5"/><circle r="46" fill="none" stroke="#a08e90" stroke-width="1.5"/>
<text y="-28" text-anchor="middle" font-family="Georgia,serif" font-size="14" fill="#2c2a4a">N</text><text y="40" text-anchor="middle" font-family="Georgia,serif" font-size="12" fill="#2c2a4a">S</text>
<g><animateTransform attributeName="transform" type="rotate" values="-18;22;-8;14;-18" dur="8s" repeatCount="indefinite"/><path d="M0,-38 L8,0 L-8,0 Z" fill="#f27b8f"/><path d="M0,38 L8,0 L-8,0 Z" fill="#a08e90"/><circle r="4" fill="#2c2a4a"/></g></g></g><g transform="translate(0,170) scale(1.1)"><g><animateTransform attributeName="transform" type="translate" from="-120 0" to="1320 0" dur="60s" begin="-8s" repeatCount="indefinite"/>
<path d="M-12,0 Q-6,-9 0,0 Q6,-9 12,0" fill="none" stroke="#2c2a4a" stroke-width="2.2" stroke-linecap="round">
<animate attributeName="d" values="M-12,0 Q-6,-9 0,0 Q6,-9 12,0;M-12,-3 Q-6,4 0,0 Q6,4 12,-3;M-12,0 Q-6,-9 0,0 Q6,-9 12,0" dur="0.9s" repeatCount="indefinite"/></path></g></g><g transform="translate(0,130) scale(0.9)"><g><animateTransform attributeName="transform" type="translate" from="-120 0" to="1320 0" dur="74s" begin="-40s" repeatCount="indefinite"/>
<path d="M-12,0 Q-6,-9 0,0 Q6,-9 12,0" fill="none" stroke="#2c2a4a" stroke-width="2.2" stroke-linecap="round">
<animate attributeName="d" values="M-12,0 Q-6,-9 0,0 Q6,-9 12,0;M-12,-3 Q-6,4 0,0 Q6,4 12,-3;M-12,0 Q-6,-9 0,0 Q6,-9 12,0" dur="0.9s" repeatCount="indefinite"/></path></g></g><circle cx="64.5" cy="648.3" r="2.1" fill="#ffffff" opacity=".0"><animate attributeName="opacity" values="0;.95;0" dur="4.3s" begin="-1.4697546804090962s" repeatCount="indefinite"/><animate attributeName="cy" values="648.3;614.3;648.3" dur="4.3s" begin="-1.1276745274662971s" repeatCount="indefinite"/></circle><circle cx="554.1" cy="611.6" r="3.9" fill="#ffffff" opacity=".0"><animate attributeName="opacity" values="0;.95;0" dur="5.7s" begin="-1.7894094615010545s" repeatCount="indefinite"/><animate attributeName="cy" values="611.6;577.6;611.6" dur="5.7s" begin="-0.08052367996424437s" repeatCount="indefinite"/></circle><circle cx="141.3" cy="461.3" r="2.4" fill="#ffffff" opacity=".0"><animate attributeName="opacity" values="0;.95;0" dur="5.1s" begin="-3.495540199871175s" repeatCount="indefinite"/><animate attributeName="cy" values="461.3;427.3;461.3" dur="5.1s" begin="-1.4726028349250555s" repeatCount="indefinite"/></circle><circle cx="441.2" cy="408.2" r="3.8" fill="#ffffff" opacity=".0"><animate attributeName="opacity" values="0;.95;0" dur="4.1s" begin="-3.4894975876202805s" repeatCount="indefinite"/><animate attributeName="cy" values="408.2;374.2;408.2" dur="4.1s" begin="-0.8487377250567079s" repeatCount="indefinite"/></circle><circle cx="942.3" cy="646" r="2.3" fill="#ffffff" opacity=".0"><animate attributeName="opacity" values="0;.95;0" dur="7.5s" begin="-2.7033428329741582s" repeatCount="indefinite"/><animate attributeName="cy" values="646;612;646" dur="7.5s" begin="-0.266550961881876s" repeatCount="indefinite"/></circle><circle cx="714.5" cy="329" r="3" fill="#ffffff" opacity=".0"><animate attributeName="opacity" values="0;.95;0" dur="8s" begin="-7.132927617058158s" repeatCount="indefinite"/><animate attributeName="cy" values="329;295;329" dur="8s" begin="-0.5575818782672286s" repeatCount="indefinite"/></circle><circle cx="842" cy="377.4" r="4" fill="#ffffff" opacity=".0"><animate attributeName="opacity" values="0;.95;0" dur="6.1s" begin="-5.141172061604447s" repeatCount="indefinite"/><animate attributeName="cy" values="377.4;343.4;377.4" dur="6.1s" begin="-0.05437927134335041s" repeatCount="indefinite"/></circle><circle cx="129.5" cy="550.5" r="4" fill="#ffffff" opacity=".0"><animate attributeName="opacity" values="0;.95;0" dur="6.7s" begin="-1.6587157950969413s" repeatCount="indefinite"/><animate attributeName="cy" values="550.5;516.5;550.5" dur="6.7s" begin="-1.788205717690289s" repeatCount="indefinite"/></circle><circle cx="921" cy="395.4" r="1.6" fill="#ffffff" opacity=".0"><animate attributeName="opacity" values="0;.95;0" dur="6.8s" begin="-6.661919419933111s" repeatCount="indefinite"/><animate attributeName="cy" values="395.4;361.4;395.4" dur="6.8s" begin="-0.8905077576637268s" repeatCount="indefinite"/></circle><circle cx="544.6" cy="502.1" r="2.7" fill="#ffffff" opacity=".0"><animate attributeName="opacity" values="0;.95;0" dur="4.3s" begin="-2.535383790754713s" repeatCount="indefinite"/><animate attributeName="cy" values="502.1;468.1;502.1" dur="4.3s" begin="-0.7066968707367778s" repeatCount="indefinite"/></circle><circle cx="643.7" cy="302.9" r="4" fill="#ffffff" opacity=".0"><animate attributeName="opacity" values="0;.95;0" dur="5.4s" begin="-0.9150309463497251s" repeatCount="indefinite"/><animate attributeName="cy" values="302.9;268.9;302.9" dur="5.4s" begin="-0.5780517887324095s" repeatCount="indefinite"/></circle><circle cx="127.9" cy="573.7" r="3.9" fill="#ffffff" opacity=".0"><animate attributeName="opacity" values="0;.95;0" dur="4.3s" begin="-1.8999275871785357s" repeatCount="indefinite"/><animate attributeName="cy" values="573.7;539.7;573.7" dur="4.3s" begin="-1.9916933188214898s" repeatCount="indefinite"/></circle>
<rect width="1200" height="800" fill="url(#gShade)" opacity=".55"/>
<rect width="1200" height="800" filter="url(#fGrain)" opacity=".5" style="mix-blend-mode:multiply"/>
</svg>