<svg xmlns="http://www.w3.org/2000/svg" viewBox="0 0 1200 800" width="1200" height="800" preserveAspectRatio="xMidYMid slice">
<title>Vale verde depois da chuva</title><desc>Ilustração original de animação 2D com luz cinematográfica e elementos reconhecíveis: Vale verde depois da chuva.</desc>
<defs>
<linearGradient id="gSky" x1="0" y1="0" x2="0" y2="1"><stop offset="0" stop-color="#4e6070"/><stop offset=".55" stop-color="#c18362"/><stop offset="1" stop-color="#edc487"/></linearGradient>
<radialGradient id="gSun"><stop offset="0" stop-color="#ffe1a0"/><stop offset=".35" stop-color="#ed9f64" stop-opacity=".85"/><stop offset="1" stop-color="#ed9f64" stop-opacity="0"/></radialGradient>
<linearGradient id="gCloud" x1="0" y1="0" x2="0" y2="1"><stop offset="0" stop-color="#e8d8c6"/><stop offset="1" stop-color="#9c8f88"/></linearGradient>
<linearGradient id="gLeaf" x1="0" y1="0" x2="0" y2="1"><stop offset="0" stop-color="#9a9c62"/><stop offset=".55" stop-color="#69764d"/><stop offset="1" stop-color="#46533b"/></linearGradient>
<linearGradient id="gWood" x1="0" y1="0" x2="1" y2="0"><stop offset="0" stop-color="#655044"/><stop offset=".42" stop-color="#8b715a"/><stop offset=".68" stop-color="#655044"/><stop offset="1" stop-color="#8b715a"/></linearGradient>
<linearGradient id="gWall" x1="0" y1="0" x2="1" y2="0.8"><stop offset="0" stop-color="#e1d4c1"/><stop offset=".62" stop-color="#e1d4c1"/><stop offset="1" stop-color="#b8a997"/></linearGradient>
<linearGradient id="gRoof" x1="0" y1="0" x2="1" y2="1"><stop offset="0" stop-color="#875f53"/><stop offset=".58" stop-color="#875f53"/><stop offset="1" stop-color="#614844"/></linearGradient>
<linearGradient id="gGlass" x1="0" y1="0" x2="1" y2="1"><stop offset="0" stop-color="#b6d1d2"/><stop offset=".42" stop-color="#6f929d"/><stop offset="1" stop-color="#394f5b"/></linearGradient>
<linearGradient id="gSkin" x1="0" y1="0" x2="1" y2="1"><stop offset="0" stop-color="#c98a62"/><stop offset=".48" stop-color="#986044"/><stop offset="1" stop-color="#674334"/></linearGradient>
<linearGradient id="gFruit" x1="0" y1="0" x2="1" y2="1"><stop offset="0" stop-color="#f0ad6c"/><stop offset=".36" stop-color="#c3634c"/><stop offset="1" stop-color="#85443b"/></linearGradient>
<linearGradient id="gPepper" x1="0" y1="0" x2="1" y2="1"><stop offset="0" stop-color="#efaa70"/><stop offset=".42" stop-color="#c3634c"/><stop offset="1" stop-color="#784038"/></linearGradient>
<linearGradient id="gWater" x1="0" y1="0" x2="0" y2="1"><stop offset="0" stop-color="#6e9397"/><stop offset="1" stop-color="#465f68"/></linearGradient>
<linearGradient id="gShade" x1="0" y1="0" x2="0" y2="1"><stop offset="0" stop-color="#000" stop-opacity="0"/><stop offset="1" stop-color="#211d16" stop-opacity=".18"/></linearGradient>
<linearGradient id="gRay" x1="0" y1="0" x2="0" y2="1"><stop offset="0" stop-color="#e6c995" stop-opacity=".75"/><stop offset="1" stop-color="#e6c995" stop-opacity="0"/></linearGradient>
<filter id="fGrain" x="0" y="0" width="100%" height="100%"><feTurbulence type="fractalNoise" baseFrequency=".72" numOctaves="2" seed="17" result="n"/><feColorMatrix in="n" type="matrix" values="0 0 0 0 .34  0 0 0 0 .34  0 0 0 0 .32  0 0 0 .24 -.08"/></filter>
<filter id="fSoft"><feGaussianBlur stdDeviation="6"/></filter>
<filter id="fSoft2"><feGaussianBlur stdDeviation="14"/></filter>
<filter id="fObject" x="-30%" y="-20%" width="160%" height="150%"><feDropShadow dx="2" dy="7" stdDeviation="5" flood-color="#29251f" flood-opacity=".24"/></filter>
</defs>
<rect width="1200" height="800" fill="url(#gSky)"/>
<circle cx="1110.6" cy="205" r="2.3" fill="#fff8e6" opacity=".2"></circle><circle cx="959.3" cy="50.8" r="1.6" fill="#fff8e6" opacity=".2"></circle><circle cx="1169.6" cy="5.9" r="1.5" fill="#fff8e6" opacity=".2"></circle><circle cx="837.8" cy="54.1" r="1.4" fill="#fff8e6" opacity=".2"></circle><circle cx="1162.3" cy="260.5" r="2" fill="#fff8e6" opacity=".2"></circle><circle cx="296.8" cy="59.6" r="1.2" fill="#fff8e6" opacity=".2"></circle><circle cx="828.2" cy="315.1" r="1" fill="#fff8e6" opacity=".2"></circle><circle cx="235" cy="145.5" r="1.6" fill="#fff8e6" opacity=".2"></circle><circle cx="414.3" cy="234.9" r="1" fill="#fff8e6" opacity=".2"></circle><circle cx="694.6" cy="108.6" r="1.4" fill="#fff8e6" opacity=".2"></circle><circle cx="331.2" cy="252.8" r="1.8" fill="#fff8e6" opacity=".2"></circle><circle cx="51.1" cy="146.6" r="2.1" fill="#fff8e6" opacity=".2"></circle><circle cx="213.2" cy="245" r="1.4" fill="#fff8e6" opacity=".2"></circle><circle cx="358.5" cy="25.1" r="2" fill="#fff8e6" opacity=".2"></circle><circle cx="115.2" cy="58.9" r="1" fill="#fff8e6" opacity=".2"></circle><circle cx="1186" cy="198.4" r="1.9" fill="#fff8e6" opacity=".2"></circle><circle cx="751.3" cy="10" r="1.2" fill="#fff8e6" opacity=".2"></circle><circle cx="52.2" cy="28.9" r="1" fill="#fff8e6" opacity=".2"></circle><circle cx="785.9" cy="80" r="1.5" fill="#fff8e6" opacity=".2"></circle><circle cx="986.8" cy="67.5" r="2" fill="#fff8e6" opacity=".2"></circle><circle cx="624.3" cy="308" r="1.2" fill="#fff8e6" opacity=".2"></circle><circle cx="511.4" cy="81.6" r="0.8" fill="#fff8e6" opacity=".2"></circle><circle cx="1083.2" cy="142.8" r="0.9" fill="#fff8e6" opacity=".2"></circle><circle cx="899" cy="299.4" r="1.5" fill="#fff8e6" opacity=".2"></circle><circle cx="1119.3" cy="192.9" r="2.2" fill="#fff8e6" opacity=".2"></circle><circle cx="629.9" cy="145.2" r="1.4" fill="#fff8e6" opacity=".2"></circle><circle cx="248" cy="270.4" r="2.2" fill="#fff8e6" opacity=".2"></circle><circle cx="1171.2" cy="253.5" r="1.7" fill="#fff8e6" opacity=".2"></circle><circle cx="553.5" cy="196.9" r="2.1" fill="#fff8e6" opacity=".2"></circle><circle cx="257.8" cy="274.3" r="1.1" fill="#fff8e6" opacity=".2"></circle><circle cx="1061.1" cy="47.4" r="1.6" fill="#fff8e6" opacity=".2"></circle><circle cx="409.2" cy="304.4" r="1.9" fill="#fff8e6" opacity=".2"></circle><circle cx="280.8" cy="63" r="1.1" fill="#fff8e6" opacity=".2"></circle><circle cx="958.2" cy="187.8" r="1.9" fill="#fff8e6" opacity=".2"></circle><circle cx="522.2" cy="96.1" r="1" fill="#fff8e6" opacity=".2"></circle><circle cx="70.1" cy="214.9" r="1" fill="#fff8e6" opacity=".2"></circle><circle cx="1084.8" cy="112.6" r="1.2" fill="#fff8e6" opacity=".2"></circle><circle cx="763.9" cy="284.9" r="1.9" fill="#fff8e6" opacity=".2"></circle><circle cx="1037.8" cy="252.2" r="1.7" fill="#fff8e6" opacity=".2"></circle><circle cx="1094.1" cy="165.8" r="0.9" fill="#fff8e6" opacity=".2"></circle><circle cx="178.9" cy="74.5" r="2.3" fill="#fff8e6" opacity=".2"></circle><circle cx="880.6" cy="69.2" r="1.5" fill="#fff8e6" opacity=".2"></circle><circle cx="887" cy="301.9" r="2.2" fill="#fff8e6" opacity=".2"></circle><circle cx="563.2" cy="126.6" r="2" fill="#fff8e6" opacity=".2"></circle><circle cx="530.2" cy="157.4" r="2.4" fill="#fff8e6" opacity=".2"></circle><circle cx="577.2" cy="268" r="1.1" fill="#fff8e6" opacity=".2"></circle>
<circle cx="959" cy="390" r="204.8" fill="url(#gSun)"></circle>

<path d="M-130,800 L-130,474.9 Q-130,474.9 -65,456.2 Q0,437.6 65,451 Q130,464.5 195,470 Q260,475.6 325,452.3 Q390,429 455,442.8 Q520,456.7 585,473.2 Q650,489.8 715,492.8 Q780,495.8 845,487 Q910,478.1 975,457.2 Q1040,436.3 1105,455.3 Q1170,474.2 1235,478.6 L1300,483.1 L1300,800 Z" fill="#9d9273"/><path d="M-130,800 L-130,583.4 Q-130,583.4 -65,584.8 Q0,586.1 65,565.2 Q130,544.3 195,548.9 Q260,553.5 325,536.3 Q390,519 455,538 Q520,556.9 585,556.1 Q650,555.4 715,569.8 Q780,584.3 845,584 Q910,583.8 975,552.5 Q1040,521.3 1105,546.2 Q1170,571.2 1235,548.3 L1300,525.4 L1300,800 Z" fill="#7d805d"/><path d="M0,620 Q260,570 520,620 T1200,605 V800 H0 Z" fill="#656d4e"/><path d="M0,730 Q300,680 610,730 T1200,710 V800 H0 Z" fill="#4c5c47"/><g transform="translate(100,715) scale(1.15)">
<path d="M-15,0 C-8,-31 -22,-59 -10,-91 C-3,-112 -17,-127 -28,-143 L-22,-151 C-3,-140 10,-121 5,-99 C1,-74 24,-41 17,0Z" fill="url(#gWood)"/>
<path d="M-5,-76 C-33,-99 -45,-121 -53,-143 M2,-89 C25,-105 39,-122 48,-145 M-11,-111 C-6,-132 -2,-148 1,-166" fill="none" stroke="#655044" stroke-width="9" stroke-linecap="round"/>
<path d="M-91,-137 C-104,-163 -83,-195 -54,-196 C-47,-225 -9,-240 17,-222 C41,-249 83,-228 82,-198 C114,-189 125,-155 104,-135 C110,-105 79,-85 52,-99 C25,-77 -8,-91 -17,-108 C-47,-86 -83,-104 -91,-137Z" fill="#46533b"/>
<g>
<path d="M-82,-142 C-93,-165 -70,-189 -45,-186 C-37,-216 -2,-225 19,-205 C41,-230 73,-210 69,-183 C100,-176 108,-146 88,-128 C93,-102 62,-88 42,-105 C22,-83 -8,-98 -13,-116 C-40,-95 -74,-109 -82,-142Z" fill="url(#gLeaf)"/>
<path d="M-55,-169 C-39,-190 -17,-194 3,-183 M9,-199 C32,-213 55,-201 59,-181 M-27,-125 C-3,-145 23,-147 47,-132 M-69,-143 C-45,-158 -20,-157 1,-143" fill="none" stroke="#9a9c62" stroke-width="5" stroke-linecap="round" opacity=".62"/>
<ellipse cx="-48" cy="-177" rx="11" ry="5" transform="rotate(-32 -48 -177)" fill="#9a9c62"/><ellipse cx="28" cy="-208" rx="12" ry="5" transform="rotate(24 28 -208)" fill="#9a9c62"/><ellipse cx="68" cy="-159" rx="12" ry="5" transform="rotate(-18 68 -159)" fill="#9a9c62"/><ellipse cx="-3" cy="-119" rx="11" ry="5" transform="rotate(18 -3 -119)" fill="#9a9c62"/><ellipse cx="44" cy="-126" rx="10" ry="5" transform="rotate(-28 44 -126)" fill="#9a9c62"/></g></g><g transform="translate(1090,720) scale(1)"><path d="M-6,0 C-3,-31 -8,-72 0,-118" fill="none" stroke="url(#gWood)" stroke-width="12"/>
<path d="M0,-119 C-12,-105 -20,-91 -41,-81 C-27,-77 -12,-81 0,-91 C13,-78 31,-78 47,-82 C27,-94 14,-107 0,-119Z" fill="#46533b"/>
<path d="M0,-92 C-16,-76 -30,-58 -56,-46 C-37,-42 -17,-49 0,-64 C17,-48 40,-44 61,-49 C36,-62 17,-78 0,-92Z" fill="url(#gLeaf)"/>
<path d="M0,-64 C-20,-47 -39,-28 -72,-14 C-48,-10 -19,-19 0,-37 C21,-18 50,-11 75,-18 C45,-31 20,-48 0,-64Z" fill="#46533b"/>
<path d="M-38,-80 L-2,-91 M-48,-45 L-2,-61 M-59,-14 L-2,-34" stroke="#9a9c62" stroke-width="3" opacity=".55"/></g><g transform="translate(666.7,710.7) scale(0.8)"><g>
<path d="M0,0 C2,-10 -2,-17 1,-25 M0,-10 Q-13,-17 -17,-10 Q-8,-7 0,-6 M0,-16 Q12,-23 17,-16 Q9,-13 0,-12" stroke="#46533b" stroke-width="2.2" fill="#69764d" stroke-linecap="round"/>
<path d="M0,-5 C-7,-13 -6,-23 0,-27 C7,-22 7,-12 0,-5Z" transform="rotate(0)" fill="#c3634c"/><path d="M0,-5 C-7,-13 -6,-23 0,-27 C7,-22 7,-12 0,-5Z" transform="rotate(72)" fill="#9a9c62"/><path d="M0,-5 C-7,-13 -6,-23 0,-27 C7,-22 7,-12 0,-5Z" transform="rotate(144)" fill="#c3634c"/><path d="M0,-5 C-7,-13 -6,-23 0,-27 C7,-22 7,-12 0,-5Z" transform="rotate(216)" fill="#9a9c62"/><path d="M0,-5 C-7,-13 -6,-23 0,-27 C7,-22 7,-12 0,-5Z" transform="rotate(288)" fill="#c3634c"/><circle cy="-5" r="4.2" fill="#e0a640"/><circle cx="-1" cy="-6" r="1.3" fill="#f5e8c8"/></g></g><g transform="translate(1104.5,785.8) scale(1.5)"><g>
<path d="M0,0 C2,-10 -2,-17 1,-25 M0,-10 Q-13,-17 -17,-10 Q-8,-7 0,-6 M0,-16 Q12,-23 17,-16 Q9,-13 0,-12" stroke="#46533b" stroke-width="2.2" fill="#69764d" stroke-linecap="round"/>
<path d="M0,-5 C-7,-13 -6,-23 0,-27 C7,-22 7,-12 0,-5Z" transform="rotate(0)" fill="#e0a640"/><path d="M0,-5 C-7,-13 -6,-23 0,-27 C7,-22 7,-12 0,-5Z" transform="rotate(72)" fill="#9a9c62"/><path d="M0,-5 C-7,-13 -6,-23 0,-27 C7,-22 7,-12 0,-5Z" transform="rotate(144)" fill="#e0a640"/><path d="M0,-5 C-7,-13 -6,-23 0,-27 C7,-22 7,-12 0,-5Z" transform="rotate(216)" fill="#9a9c62"/><path d="M0,-5 C-7,-13 -6,-23 0,-27 C7,-22 7,-12 0,-5Z" transform="rotate(288)" fill="#e0a640"/><circle cy="-5" r="4.2" fill="#e0a640"/><circle cx="-1" cy="-6" r="1.3" fill="#f5e8c8"/></g></g><g transform="translate(1111.1,691.8) scale(0.6)"><g>
<path d="M0,0 C2,-10 -2,-17 1,-25 M0,-10 Q-13,-17 -17,-10 Q-8,-7 0,-6 M0,-16 Q12,-23 17,-16 Q9,-13 0,-12" stroke="#46533b" stroke-width="2.2" fill="#69764d" stroke-linecap="round"/>
<path d="M0,-5 C-7,-13 -6,-23 0,-27 C7,-22 7,-12 0,-5Z" transform="rotate(0)" fill="#ffffff"/><path d="M0,-5 C-7,-13 -6,-23 0,-27 C7,-22 7,-12 0,-5Z" transform="rotate(72)" fill="#9a9c62"/><path d="M0,-5 C-7,-13 -6,-23 0,-27 C7,-22 7,-12 0,-5Z" transform="rotate(144)" fill="#ffffff"/><path d="M0,-5 C-7,-13 -6,-23 0,-27 C7,-22 7,-12 0,-5Z" transform="rotate(216)" fill="#9a9c62"/><path d="M0,-5 C-7,-13 -6,-23 0,-27 C7,-22 7,-12 0,-5Z" transform="rotate(288)" fill="#ffffff"/><circle cy="-5" r="4.2" fill="#e0a640"/><circle cx="-1" cy="-6" r="1.3" fill="#f5e8c8"/></g></g><g transform="translate(627.6,778.5) scale(1.4)"><g>
<path d="M0,0 C2,-10 -2,-17 1,-25 M0,-10 Q-13,-17 -17,-10 Q-8,-7 0,-6 M0,-16 Q12,-23 17,-16 Q9,-13 0,-12" stroke="#46533b" stroke-width="2.2" fill="#69764d" stroke-linecap="round"/>
<path d="M0,-5 C-7,-13 -6,-23 0,-27 C7,-22 7,-12 0,-5Z" transform="rotate(0)" fill="#526f83"/><path d="M0,-5 C-7,-13 -6,-23 0,-27 C7,-22 7,-12 0,-5Z" transform="rotate(72)" fill="#9a9c62"/><path d="M0,-5 C-7,-13 -6,-23 0,-27 C7,-22 7,-12 0,-5Z" transform="rotate(144)" fill="#526f83"/><path d="M0,-5 C-7,-13 -6,-23 0,-27 C7,-22 7,-12 0,-5Z" transform="rotate(216)" fill="#9a9c62"/><path d="M0,-5 C-7,-13 -6,-23 0,-27 C7,-22 7,-12 0,-5Z" transform="rotate(288)" fill="#526f83"/><circle cy="-5" r="4.2" fill="#e0a640"/><circle cx="-1" cy="-6" r="1.3" fill="#f5e8c8"/></g></g><g transform="translate(449.6,782.8) scale(1.4)"><g>
<path d="M0,0 C2,-10 -2,-17 1,-25 M0,-10 Q-13,-17 -17,-10 Q-8,-7 0,-6 M0,-16 Q12,-23 17,-16 Q9,-13 0,-12" stroke="#46533b" stroke-width="2.2" fill="#69764d" stroke-linecap="round"/>
<path d="M0,-5 C-7,-13 -6,-23 0,-27 C7,-22 7,-12 0,-5Z" transform="rotate(0)" fill="#c3634c"/><path d="M0,-5 C-7,-13 -6,-23 0,-27 C7,-22 7,-12 0,-5Z" transform="rotate(72)" fill="#9a9c62"/><path d="M0,-5 C-7,-13 -6,-23 0,-27 C7,-22 7,-12 0,-5Z" transform="rotate(144)" fill="#c3634c"/><path d="M0,-5 C-7,-13 -6,-23 0,-27 C7,-22 7,-12 0,-5Z" transform="rotate(216)" fill="#9a9c62"/><path d="M0,-5 C-7,-13 -6,-23 0,-27 C7,-22 7,-12 0,-5Z" transform="rotate(288)" fill="#c3634c"/><circle cy="-5" r="4.2" fill="#e0a640"/><circle cx="-1" cy="-6" r="1.3" fill="#f5e8c8"/></g></g><g transform="translate(597.5,772.6) scale(1.3)"><g>
<path d="M0,0 C2,-10 -2,-17 1,-25 M0,-10 Q-13,-17 -17,-10 Q-8,-7 0,-6 M0,-16 Q12,-23 17,-16 Q9,-13 0,-12" stroke="#46533b" stroke-width="2.2" fill="#69764d" stroke-linecap="round"/>
<path d="M0,-5 C-7,-13 -6,-23 0,-27 C7,-22 7,-12 0,-5Z" transform="rotate(0)" fill="#e0a640"/><path d="M0,-5 C-7,-13 -6,-23 0,-27 C7,-22 7,-12 0,-5Z" transform="rotate(72)" fill="#9a9c62"/><path d="M0,-5 C-7,-13 -6,-23 0,-27 C7,-22 7,-12 0,-5Z" transform="rotate(144)" fill="#e0a640"/><path d="M0,-5 C-7,-13 -6,-23 0,-27 C7,-22 7,-12 0,-5Z" transform="rotate(216)" fill="#9a9c62"/><path d="M0,-5 C-7,-13 -6,-23 0,-27 C7,-22 7,-12 0,-5Z" transform="rotate(288)" fill="#e0a640"/><circle cy="-5" r="4.2" fill="#e0a640"/><circle cx="-1" cy="-6" r="1.3" fill="#f5e8c8"/></g></g><g transform="translate(796.8,727) scale(0.9)"><g>
<path d="M0,0 C2,-10 -2,-17 1,-25 M0,-10 Q-13,-17 -17,-10 Q-8,-7 0,-6 M0,-16 Q12,-23 17,-16 Q9,-13 0,-12" stroke="#46533b" stroke-width="2.2" fill="#69764d" stroke-linecap="round"/>
<path d="M0,-5 C-7,-13 -6,-23 0,-27 C7,-22 7,-12 0,-5Z" transform="rotate(0)" fill="#ffffff"/><path d="M0,-5 C-7,-13 -6,-23 0,-27 C7,-22 7,-12 0,-5Z" transform="rotate(72)" fill="#9a9c62"/><path d="M0,-5 C-7,-13 -6,-23 0,-27 C7,-22 7,-12 0,-5Z" transform="rotate(144)" fill="#ffffff"/><path d="M0,-5 C-7,-13 -6,-23 0,-27 C7,-22 7,-12 0,-5Z" transform="rotate(216)" fill="#9a9c62"/><path d="M0,-5 C-7,-13 -6,-23 0,-27 C7,-22 7,-12 0,-5Z" transform="rotate(288)" fill="#ffffff"/><circle cy="-5" r="4.2" fill="#e0a640"/><circle cx="-1" cy="-6" r="1.3" fill="#f5e8c8"/></g></g><g transform="translate(688.3,772.5) scale(1.3)"><g>
<path d="M0,0 C2,-10 -2,-17 1,-25 M0,-10 Q-13,-17 -17,-10 Q-8,-7 0,-6 M0,-16 Q12,-23 17,-16 Q9,-13 0,-12" stroke="#46533b" stroke-width="2.2" fill="#69764d" stroke-linecap="round"/>
<path d="M0,-5 C-7,-13 -6,-23 0,-27 C7,-22 7,-12 0,-5Z" transform="rotate(0)" fill="#526f83"/><path d="M0,-5 C-7,-13 -6,-23 0,-27 C7,-22 7,-12 0,-5Z" transform="rotate(72)" fill="#9a9c62"/><path d="M0,-5 C-7,-13 -6,-23 0,-27 C7,-22 7,-12 0,-5Z" transform="rotate(144)" fill="#526f83"/><path d="M0,-5 C-7,-13 -6,-23 0,-27 C7,-22 7,-12 0,-5Z" transform="rotate(216)" fill="#9a9c62"/><path d="M0,-5 C-7,-13 -6,-23 0,-27 C7,-22 7,-12 0,-5Z" transform="rotate(288)" fill="#526f83"/><circle cy="-5" r="4.2" fill="#e0a640"/><circle cx="-1" cy="-6" r="1.3" fill="#f5e8c8"/></g></g><g transform="translate(85.6,722.1) scale(0.9)"><g>
<path d="M0,0 C2,-10 -2,-17 1,-25 M0,-10 Q-13,-17 -17,-10 Q-8,-7 0,-6 M0,-16 Q12,-23 17,-16 Q9,-13 0,-12" stroke="#46533b" stroke-width="2.2" fill="#69764d" stroke-linecap="round"/>
<path d="M0,-5 C-7,-13 -6,-23 0,-27 C7,-22 7,-12 0,-5Z" transform="rotate(0)" fill="#c3634c"/><path d="M0,-5 C-7,-13 -6,-23 0,-27 C7,-22 7,-12 0,-5Z" transform="rotate(72)" fill="#9a9c62"/><path d="M0,-5 C-7,-13 -6,-23 0,-27 C7,-22 7,-12 0,-5Z" transform="rotate(144)" fill="#c3634c"/><path d="M0,-5 C-7,-13 -6,-23 0,-27 C7,-22 7,-12 0,-5Z" transform="rotate(216)" fill="#9a9c62"/><path d="M0,-5 C-7,-13 -6,-23 0,-27 C7,-22 7,-12 0,-5Z" transform="rotate(288)" fill="#c3634c"/><circle cy="-5" r="4.2" fill="#e0a640"/><circle cx="-1" cy="-6" r="1.3" fill="#f5e8c8"/></g></g><g transform="translate(1099.9,786.4) scale(1.5)"><g>
<path d="M0,0 C2,-10 -2,-17 1,-25 M0,-10 Q-13,-17 -17,-10 Q-8,-7 0,-6 M0,-16 Q12,-23 17,-16 Q9,-13 0,-12" stroke="#46533b" stroke-width="2.2" fill="#69764d" stroke-linecap="round"/>
<path d="M0,-5 C-7,-13 -6,-23 0,-27 C7,-22 7,-12 0,-5Z" transform="rotate(0)" fill="#e0a640"/><path d="M0,-5 C-7,-13 -6,-23 0,-27 C7,-22 7,-12 0,-5Z" transform="rotate(72)" fill="#9a9c62"/><path d="M0,-5 C-7,-13 -6,-23 0,-27 C7,-22 7,-12 0,-5Z" transform="rotate(144)" fill="#e0a640"/><path d="M0,-5 C-7,-13 -6,-23 0,-27 C7,-22 7,-12 0,-5Z" transform="rotate(216)" fill="#9a9c62"/><path d="M0,-5 C-7,-13 -6,-23 0,-27 C7,-22 7,-12 0,-5Z" transform="rotate(288)" fill="#e0a640"/><circle cy="-5" r="4.2" fill="#e0a640"/><circle cx="-1" cy="-6" r="1.3" fill="#f5e8c8"/></g></g><g transform="translate(1050.6,752.1) scale(1.2)"><g>
<path d="M0,0 C2,-10 -2,-17 1,-25 M0,-10 Q-13,-17 -17,-10 Q-8,-7 0,-6 M0,-16 Q12,-23 17,-16 Q9,-13 0,-12" stroke="#46533b" stroke-width="2.2" fill="#69764d" stroke-linecap="round"/>
<path d="M0,-5 C-7,-13 -6,-23 0,-27 C7,-22 7,-12 0,-5Z" transform="rotate(0)" fill="#ffffff"/><path d="M0,-5 C-7,-13 -6,-23 0,-27 C7,-22 7,-12 0,-5Z" transform="rotate(72)" fill="#9a9c62"/><path d="M0,-5 C-7,-13 -6,-23 0,-27 C7,-22 7,-12 0,-5Z" transform="rotate(144)" fill="#ffffff"/><path d="M0,-5 C-7,-13 -6,-23 0,-27 C7,-22 7,-12 0,-5Z" transform="rotate(216)" fill="#9a9c62"/><path d="M0,-5 C-7,-13 -6,-23 0,-27 C7,-22 7,-12 0,-5Z" transform="rotate(288)" fill="#ffffff"/><circle cy="-5" r="4.2" fill="#e0a640"/><circle cx="-1" cy="-6" r="1.3" fill="#f5e8c8"/></g></g><g transform="translate(179.1,749.2) scale(1.1)"><g>
<path d="M0,0 C2,-10 -2,-17 1,-25 M0,-10 Q-13,-17 -17,-10 Q-8,-7 0,-6 M0,-16 Q12,-23 17,-16 Q9,-13 0,-12" stroke="#46533b" stroke-width="2.2" fill="#69764d" stroke-linecap="round"/>
<path d="M0,-5 C-7,-13 -6,-23 0,-27 C7,-22 7,-12 0,-5Z" transform="rotate(0)" fill="#526f83"/><path d="M0,-5 C-7,-13 -6,-23 0,-27 C7,-22 7,-12 0,-5Z" transform="rotate(72)" fill="#9a9c62"/><path d="M0,-5 C-7,-13 -6,-23 0,-27 C7,-22 7,-12 0,-5Z" transform="rotate(144)" fill="#526f83"/><path d="M0,-5 C-7,-13 -6,-23 0,-27 C7,-22 7,-12 0,-5Z" transform="rotate(216)" fill="#9a9c62"/><path d="M0,-5 C-7,-13 -6,-23 0,-27 C7,-22 7,-12 0,-5Z" transform="rotate(288)" fill="#526f83"/><circle cy="-5" r="4.2" fill="#e0a640"/><circle cx="-1" cy="-6" r="1.3" fill="#f5e8c8"/></g></g><g transform="translate(487,750.8) scale(1.1)"><g>
<path d="M0,0 C2,-10 -2,-17 1,-25 M0,-10 Q-13,-17 -17,-10 Q-8,-7 0,-6 M0,-16 Q12,-23 17,-16 Q9,-13 0,-12" stroke="#46533b" stroke-width="2.2" fill="#69764d" stroke-linecap="round"/>
<path d="M0,-5 C-7,-13 -6,-23 0,-27 C7,-22 7,-12 0,-5Z" transform="rotate(0)" fill="#c3634c"/><path d="M0,-5 C-7,-13 -6,-23 0,-27 C7,-22 7,-12 0,-5Z" transform="rotate(72)" fill="#9a9c62"/><path d="M0,-5 C-7,-13 -6,-23 0,-27 C7,-22 7,-12 0,-5Z" transform="rotate(144)" fill="#c3634c"/><path d="M0,-5 C-7,-13 -6,-23 0,-27 C7,-22 7,-12 0,-5Z" transform="rotate(216)" fill="#9a9c62"/><path d="M0,-5 C-7,-13 -6,-23 0,-27 C7,-22 7,-12 0,-5Z" transform="rotate(288)" fill="#c3634c"/><circle cy="-5" r="4.2" fill="#e0a640"/><circle cx="-1" cy="-6" r="1.3" fill="#f5e8c8"/></g></g><g transform="translate(1115.2,776.8) scale(1.4)"><g>
<path d="M0,0 C2,-10 -2,-17 1,-25 M0,-10 Q-13,-17 -17,-10 Q-8,-7 0,-6 M0,-16 Q12,-23 17,-16 Q9,-13 0,-12" stroke="#46533b" stroke-width="2.2" fill="#69764d" stroke-linecap="round"/>
<path d="M0,-5 C-7,-13 -6,-23 0,-27 C7,-22 7,-12 0,-5Z" transform="rotate(0)" fill="#e0a640"/><path d="M0,-5 C-7,-13 -6,-23 0,-27 C7,-22 7,-12 0,-5Z" transform="rotate(72)" fill="#9a9c62"/><path d="M0,-5 C-7,-13 -6,-23 0,-27 C7,-22 7,-12 0,-5Z" transform="rotate(144)" fill="#e0a640"/><path d="M0,-5 C-7,-13 -6,-23 0,-27 C7,-22 7,-12 0,-5Z" transform="rotate(216)" fill="#9a9c62"/><path d="M0,-5 C-7,-13 -6,-23 0,-27 C7,-22 7,-12 0,-5Z" transform="rotate(288)" fill="#e0a640"/><circle cy="-5" r="4.2" fill="#e0a640"/><circle cx="-1" cy="-6" r="1.3" fill="#f5e8c8"/></g></g><g transform="translate(783.9,696.6) scale(0.7)"><g>
<path d="M0,0 C2,-10 -2,-17 1,-25 M0,-10 Q-13,-17 -17,-10 Q-8,-7 0,-6 M0,-16 Q12,-23 17,-16 Q9,-13 0,-12" stroke="#46533b" stroke-width="2.2" fill="#69764d" stroke-linecap="round"/>
<path d="M0,-5 C-7,-13 -6,-23 0,-27 C7,-22 7,-12 0,-5Z" transform="rotate(0)" fill="#ffffff"/><path d="M0,-5 C-7,-13 -6,-23 0,-27 C7,-22 7,-12 0,-5Z" transform="rotate(72)" fill="#9a9c62"/><path d="M0,-5 C-7,-13 -6,-23 0,-27 C7,-22 7,-12 0,-5Z" transform="rotate(144)" fill="#ffffff"/><path d="M0,-5 C-7,-13 -6,-23 0,-27 C7,-22 7,-12 0,-5Z" transform="rotate(216)" fill="#9a9c62"/><path d="M0,-5 C-7,-13 -6,-23 0,-27 C7,-22 7,-12 0,-5Z" transform="rotate(288)" fill="#ffffff"/><circle cy="-5" r="4.2" fill="#e0a640"/><circle cx="-1" cy="-6" r="1.3" fill="#f5e8c8"/></g></g><g transform="translate(111.8,750.9) scale(1.1)"><g>
<path d="M0,0 C2,-10 -2,-17 1,-25 M0,-10 Q-13,-17 -17,-10 Q-8,-7 0,-6 M0,-16 Q12,-23 17,-16 Q9,-13 0,-12" stroke="#46533b" stroke-width="2.2" fill="#69764d" stroke-linecap="round"/>
<path d="M0,-5 C-7,-13 -6,-23 0,-27 C7,-22 7,-12 0,-5Z" transform="rotate(0)" fill="#526f83"/><path d="M0,-5 C-7,-13 -6,-23 0,-27 C7,-22 7,-12 0,-5Z" transform="rotate(72)" fill="#9a9c62"/><path d="M0,-5 C-7,-13 -6,-23 0,-27 C7,-22 7,-12 0,-5Z" transform="rotate(144)" fill="#526f83"/><path d="M0,-5 C-7,-13 -6,-23 0,-27 C7,-22 7,-12 0,-5Z" transform="rotate(216)" fill="#9a9c62"/><path d="M0,-5 C-7,-13 -6,-23 0,-27 C7,-22 7,-12 0,-5Z" transform="rotate(288)" fill="#526f83"/><circle cy="-5" r="4.2" fill="#e0a640"/><circle cx="-1" cy="-6" r="1.3" fill="#f5e8c8"/></g></g><g transform="translate(533.2,738.3) scale(1)"><g>
<path d="M0,0 C2,-10 -2,-17 1,-25 M0,-10 Q-13,-17 -17,-10 Q-8,-7 0,-6 M0,-16 Q12,-23 17,-16 Q9,-13 0,-12" stroke="#46533b" stroke-width="2.2" fill="#69764d" stroke-linecap="round"/>
<path d="M0,-5 C-7,-13 -6,-23 0,-27 C7,-22 7,-12 0,-5Z" transform="rotate(0)" fill="#c3634c"/><path d="M0,-5 C-7,-13 -6,-23 0,-27 C7,-22 7,-12 0,-5Z" transform="rotate(72)" fill="#9a9c62"/><path d="M0,-5 C-7,-13 -6,-23 0,-27 C7,-22 7,-12 0,-5Z" transform="rotate(144)" fill="#c3634c"/><path d="M0,-5 C-7,-13 -6,-23 0,-27 C7,-22 7,-12 0,-5Z" transform="rotate(216)" fill="#9a9c62"/><path d="M0,-5 C-7,-13 -6,-23 0,-27 C7,-22 7,-12 0,-5Z" transform="rotate(288)" fill="#c3634c"/><circle cy="-5" r="4.2" fill="#e0a640"/><circle cx="-1" cy="-6" r="1.3" fill="#f5e8c8"/></g></g><g transform="translate(432.3,736.3) scale(1)"><g>
<path d="M0,0 C2,-10 -2,-17 1,-25 M0,-10 Q-13,-17 -17,-10 Q-8,-7 0,-6 M0,-16 Q12,-23 17,-16 Q9,-13 0,-12" stroke="#46533b" stroke-width="2.2" fill="#69764d" stroke-linecap="round"/>
<path d="M0,-5 C-7,-13 -6,-23 0,-27 C7,-22 7,-12 0,-5Z" transform="rotate(0)" fill="#e0a640"/><path d="M0,-5 C-7,-13 -6,-23 0,-27 C7,-22 7,-12 0,-5Z" transform="rotate(72)" fill="#9a9c62"/><path d="M0,-5 C-7,-13 -6,-23 0,-27 C7,-22 7,-12 0,-5Z" transform="rotate(144)" fill="#e0a640"/><path d="M0,-5 C-7,-13 -6,-23 0,-27 C7,-22 7,-12 0,-5Z" transform="rotate(216)" fill="#9a9c62"/><path d="M0,-5 C-7,-13 -6,-23 0,-27 C7,-22 7,-12 0,-5Z" transform="rotate(288)" fill="#e0a640"/><circle cy="-5" r="4.2" fill="#e0a640"/><circle cx="-1" cy="-6" r="1.3" fill="#f5e8c8"/></g></g><g transform="translate(212.6,752.7) scale(1.2)"><g>
<path d="M0,0 C2,-10 -2,-17 1,-25 M0,-10 Q-13,-17 -17,-10 Q-8,-7 0,-6 M0,-16 Q12,-23 17,-16 Q9,-13 0,-12" stroke="#46533b" stroke-width="2.2" fill="#69764d" stroke-linecap="round"/>
<path d="M0,-5 C-7,-13 -6,-23 0,-27 C7,-22 7,-12 0,-5Z" transform="rotate(0)" fill="#ffffff"/><path d="M0,-5 C-7,-13 -6,-23 0,-27 C7,-22 7,-12 0,-5Z" transform="rotate(72)" fill="#9a9c62"/><path d="M0,-5 C-7,-13 -6,-23 0,-27 C7,-22 7,-12 0,-5Z" transform="rotate(144)" fill="#ffffff"/><path d="M0,-5 C-7,-13 -6,-23 0,-27 C7,-22 7,-12 0,-5Z" transform="rotate(216)" fill="#9a9c62"/><path d="M0,-5 C-7,-13 -6,-23 0,-27 C7,-22 7,-12 0,-5Z" transform="rotate(288)" fill="#ffffff"/><circle cy="-5" r="4.2" fill="#e0a640"/><circle cx="-1" cy="-6" r="1.3" fill="#f5e8c8"/></g></g><g transform="translate(721.2,728.1) scale(0.9)"><g>
<path d="M0,0 C2,-10 -2,-17 1,-25 M0,-10 Q-13,-17 -17,-10 Q-8,-7 0,-6 M0,-16 Q12,-23 17,-16 Q9,-13 0,-12" stroke="#46533b" stroke-width="2.2" fill="#69764d" stroke-linecap="round"/>
<path d="M0,-5 C-7,-13 -6,-23 0,-27 C7,-22 7,-12 0,-5Z" transform="rotate(0)" fill="#526f83"/><path d="M0,-5 C-7,-13 -6,-23 0,-27 C7,-22 7,-12 0,-5Z" transform="rotate(72)" fill="#9a9c62"/><path d="M0,-5 C-7,-13 -6,-23 0,-27 C7,-22 7,-12 0,-5Z" transform="rotate(144)" fill="#526f83"/><path d="M0,-5 C-7,-13 -6,-23 0,-27 C7,-22 7,-12 0,-5Z" transform="rotate(216)" fill="#9a9c62"/><path d="M0,-5 C-7,-13 -6,-23 0,-27 C7,-22 7,-12 0,-5Z" transform="rotate(288)" fill="#526f83"/><circle cy="-5" r="4.2" fill="#e0a640"/><circle cx="-1" cy="-6" r="1.3" fill="#f5e8c8"/></g></g><g transform="translate(145.1,732.8) scale(1)"><g>
<path d="M0,0 C2,-10 -2,-17 1,-25 M0,-10 Q-13,-17 -17,-10 Q-8,-7 0,-6 M0,-16 Q12,-23 17,-16 Q9,-13 0,-12" stroke="#46533b" stroke-width="2.2" fill="#69764d" stroke-linecap="round"/>
<path d="M0,-5 C-7,-13 -6,-23 0,-27 C7,-22 7,-12 0,-5Z" transform="rotate(0)" fill="#c3634c"/><path d="M0,-5 C-7,-13 -6,-23 0,-27 C7,-22 7,-12 0,-5Z" transform="rotate(72)" fill="#9a9c62"/><path d="M0,-5 C-7,-13 -6,-23 0,-27 C7,-22 7,-12 0,-5Z" transform="rotate(144)" fill="#c3634c"/><path d="M0,-5 C-7,-13 -6,-23 0,-27 C7,-22 7,-12 0,-5Z" transform="rotate(216)" fill="#9a9c62"/><path d="M0,-5 C-7,-13 -6,-23 0,-27 C7,-22 7,-12 0,-5Z" transform="rotate(288)" fill="#c3634c"/><circle cy="-5" r="4.2" fill="#e0a640"/><circle cx="-1" cy="-6" r="1.3" fill="#f5e8c8"/></g></g><g transform="translate(800.5,731.2) scale(1)"><g>
<path d="M0,0 C2,-10 -2,-17 1,-25 M0,-10 Q-13,-17 -17,-10 Q-8,-7 0,-6 M0,-16 Q12,-23 17,-16 Q9,-13 0,-12" stroke="#46533b" stroke-width="2.2" fill="#69764d" stroke-linecap="round"/>
<path d="M0,-5 C-7,-13 -6,-23 0,-27 C7,-22 7,-12 0,-5Z" transform="rotate(0)" fill="#e0a640"/><path d="M0,-5 C-7,-13 -6,-23 0,-27 C7,-22 7,-12 0,-5Z" transform="rotate(72)" fill="#9a9c62"/><path d="M0,-5 C-7,-13 -6,-23 0,-27 C7,-22 7,-12 0,-5Z" transform="rotate(144)" fill="#e0a640"/><path d="M0,-5 C-7,-13 -6,-23 0,-27 C7,-22 7,-12 0,-5Z" transform="rotate(216)" fill="#9a9c62"/><path d="M0,-5 C-7,-13 -6,-23 0,-27 C7,-22 7,-12 0,-5Z" transform="rotate(288)" fill="#e0a640"/><circle cy="-5" r="4.2" fill="#e0a640"/><circle cx="-1" cy="-6" r="1.3" fill="#f5e8c8"/></g></g><g transform="translate(331.8,707.2) scale(0.8)"><g>
<path d="M0,0 C2,-10 -2,-17 1,-25 M0,-10 Q-13,-17 -17,-10 Q-8,-7 0,-6 M0,-16 Q12,-23 17,-16 Q9,-13 0,-12" stroke="#46533b" stroke-width="2.2" fill="#69764d" stroke-linecap="round"/>
<path d="M0,-5 C-7,-13 -6,-23 0,-27 C7,-22 7,-12 0,-5Z" transform="rotate(0)" fill="#ffffff"/><path d="M0,-5 C-7,-13 -6,-23 0,-27 C7,-22 7,-12 0,-5Z" transform="rotate(72)" fill="#9a9c62"/><path d="M0,-5 C-7,-13 -6,-23 0,-27 C7,-22 7,-12 0,-5Z" transform="rotate(144)" fill="#ffffff"/><path d="M0,-5 C-7,-13 -6,-23 0,-27 C7,-22 7,-12 0,-5Z" transform="rotate(216)" fill="#9a9c62"/><path d="M0,-5 C-7,-13 -6,-23 0,-27 C7,-22 7,-12 0,-5Z" transform="rotate(288)" fill="#ffffff"/><circle cy="-5" r="4.2" fill="#e0a640"/><circle cx="-1" cy="-6" r="1.3" fill="#f5e8c8"/></g></g><g transform="translate(940.3,770.7) scale(1.3)"><g>
<path d="M0,0 C2,-10 -2,-17 1,-25 M0,-10 Q-13,-17 -17,-10 Q-8,-7 0,-6 M0,-16 Q12,-23 17,-16 Q9,-13 0,-12" stroke="#46533b" stroke-width="2.2" fill="#69764d" stroke-linecap="round"/>
<path d="M0,-5 C-7,-13 -6,-23 0,-27 C7,-22 7,-12 0,-5Z" transform="rotate(0)" fill="#526f83"/><path d="M0,-5 C-7,-13 -6,-23 0,-27 C7,-22 7,-12 0,-5Z" transform="rotate(72)" fill="#9a9c62"/><path d="M0,-5 C-7,-13 -6,-23 0,-27 C7,-22 7,-12 0,-5Z" transform="rotate(144)" fill="#526f83"/><path d="M0,-5 C-7,-13 -6,-23 0,-27 C7,-22 7,-12 0,-5Z" transform="rotate(216)" fill="#9a9c62"/><path d="M0,-5 C-7,-13 -6,-23 0,-27 C7,-22 7,-12 0,-5Z" transform="rotate(288)" fill="#526f83"/><circle cy="-5" r="4.2" fill="#e0a640"/><circle cx="-1" cy="-6" r="1.3" fill="#f5e8c8"/></g></g><g transform="translate(960.8,692) scale(0.6)"><g>
<path d="M0,0 C2,-10 -2,-17 1,-25 M0,-10 Q-13,-17 -17,-10 Q-8,-7 0,-6 M0,-16 Q12,-23 17,-16 Q9,-13 0,-12" stroke="#46533b" stroke-width="2.2" fill="#69764d" stroke-linecap="round"/>
<path d="M0,-5 C-7,-13 -6,-23 0,-27 C7,-22 7,-12 0,-5Z" transform="rotate(0)" fill="#c3634c"/><path d="M0,-5 C-7,-13 -6,-23 0,-27 C7,-22 7,-12 0,-5Z" transform="rotate(72)" fill="#9a9c62"/><path d="M0,-5 C-7,-13 -6,-23 0,-27 C7,-22 7,-12 0,-5Z" transform="rotate(144)" fill="#c3634c"/><path d="M0,-5 C-7,-13 -6,-23 0,-27 C7,-22 7,-12 0,-5Z" transform="rotate(216)" fill="#9a9c62"/><path d="M0,-5 C-7,-13 -6,-23 0,-27 C7,-22 7,-12 0,-5Z" transform="rotate(288)" fill="#c3634c"/><circle cy="-5" r="4.2" fill="#e0a640"/><circle cx="-1" cy="-6" r="1.3" fill="#f5e8c8"/></g></g><g transform="translate(605.1,733.2) scale(1)"><g>
<path d="M0,0 C2,-10 -2,-17 1,-25 M0,-10 Q-13,-17 -17,-10 Q-8,-7 0,-6 M0,-16 Q12,-23 17,-16 Q9,-13 0,-12" stroke="#46533b" stroke-width="2.2" fill="#69764d" stroke-linecap="round"/>
<path d="M0,-5 C-7,-13 -6,-23 0,-27 C7,-22 7,-12 0,-5Z" transform="rotate(0)" fill="#e0a640"/><path d="M0,-5 C-7,-13 -6,-23 0,-27 C7,-22 7,-12 0,-5Z" transform="rotate(72)" fill="#9a9c62"/><path d="M0,-5 C-7,-13 -6,-23 0,-27 C7,-22 7,-12 0,-5Z" transform="rotate(144)" fill="#e0a640"/><path d="M0,-5 C-7,-13 -6,-23 0,-27 C7,-22 7,-12 0,-5Z" transform="rotate(216)" fill="#9a9c62"/><path d="M0,-5 C-7,-13 -6,-23 0,-27 C7,-22 7,-12 0,-5Z" transform="rotate(288)" fill="#e0a640"/><circle cy="-5" r="4.2" fill="#e0a640"/><circle cx="-1" cy="-6" r="1.3" fill="#f5e8c8"/></g></g><g transform="translate(1190.8,772.2) scale(1.3)"><g>
<path d="M0,0 C2,-10 -2,-17 1,-25 M0,-10 Q-13,-17 -17,-10 Q-8,-7 0,-6 M0,-16 Q12,-23 17,-16 Q9,-13 0,-12" stroke="#46533b" stroke-width="2.2" fill="#69764d" stroke-linecap="round"/>
<path d="M0,-5 C-7,-13 -6,-23 0,-27 C7,-22 7,-12 0,-5Z" transform="rotate(0)" fill="#ffffff"/><path d="M0,-5 C-7,-13 -6,-23 0,-27 C7,-22 7,-12 0,-5Z" transform="rotate(72)" fill="#9a9c62"/><path d="M0,-5 C-7,-13 -6,-23 0,-27 C7,-22 7,-12 0,-5Z" transform="rotate(144)" fill="#ffffff"/><path d="M0,-5 C-7,-13 -6,-23 0,-27 C7,-22 7,-12 0,-5Z" transform="rotate(216)" fill="#9a9c62"/><path d="M0,-5 C-7,-13 -6,-23 0,-27 C7,-22 7,-12 0,-5Z" transform="rotate(288)" fill="#ffffff"/><circle cy="-5" r="4.2" fill="#e0a640"/><circle cx="-1" cy="-6" r="1.3" fill="#f5e8c8"/></g></g><g transform="translate(274.9,739.8) scale(1)"><g>
<path d="M0,0 C2,-10 -2,-17 1,-25 M0,-10 Q-13,-17 -17,-10 Q-8,-7 0,-6 M0,-16 Q12,-23 17,-16 Q9,-13 0,-12" stroke="#46533b" stroke-width="2.2" fill="#69764d" stroke-linecap="round"/>
<path d="M0,-5 C-7,-13 -6,-23 0,-27 C7,-22 7,-12 0,-5Z" transform="rotate(0)" fill="#526f83"/><path d="M0,-5 C-7,-13 -6,-23 0,-27 C7,-22 7,-12 0,-5Z" transform="rotate(72)" fill="#9a9c62"/><path d="M0,-5 C-7,-13 -6,-23 0,-27 C7,-22 7,-12 0,-5Z" transform="rotate(144)" fill="#526f83"/><path d="M0,-5 C-7,-13 -6,-23 0,-27 C7,-22 7,-12 0,-5Z" transform="rotate(216)" fill="#9a9c62"/><path d="M0,-5 C-7,-13 -6,-23 0,-27 C7,-22 7,-12 0,-5Z" transform="rotate(288)" fill="#526f83"/><circle cy="-5" r="4.2" fill="#e0a640"/><circle cx="-1" cy="-6" r="1.3" fill="#f5e8c8"/></g></g><g transform="translate(1009.8,715.2) scale(0.8)"><g>
<path d="M0,0 C2,-10 -2,-17 1,-25 M0,-10 Q-13,-17 -17,-10 Q-8,-7 0,-6 M0,-16 Q12,-23 17,-16 Q9,-13 0,-12" stroke="#46533b" stroke-width="2.2" fill="#69764d" stroke-linecap="round"/>
<path d="M0,-5 C-7,-13 -6,-23 0,-27 C7,-22 7,-12 0,-5Z" transform="rotate(0)" fill="#c3634c"/><path d="M0,-5 C-7,-13 -6,-23 0,-27 C7,-22 7,-12 0,-5Z" transform="rotate(72)" fill="#9a9c62"/><path d="M0,-5 C-7,-13 -6,-23 0,-27 C7,-22 7,-12 0,-5Z" transform="rotate(144)" fill="#c3634c"/><path d="M0,-5 C-7,-13 -6,-23 0,-27 C7,-22 7,-12 0,-5Z" transform="rotate(216)" fill="#9a9c62"/><path d="M0,-5 C-7,-13 -6,-23 0,-27 C7,-22 7,-12 0,-5Z" transform="rotate(288)" fill="#c3634c"/><circle cy="-5" r="4.2" fill="#e0a640"/><circle cx="-1" cy="-6" r="1.3" fill="#f5e8c8"/></g></g><g transform="translate(341.5,750.1) scale(1.1)"><g>
<path d="M0,0 C2,-10 -2,-17 1,-25 M0,-10 Q-13,-17 -17,-10 Q-8,-7 0,-6 M0,-16 Q12,-23 17,-16 Q9,-13 0,-12" stroke="#46533b" stroke-width="2.2" fill="#69764d" stroke-linecap="round"/>
<path d="M0,-5 C-7,-13 -6,-23 0,-27 C7,-22 7,-12 0,-5Z" transform="rotate(0)" fill="#e0a640"/><path d="M0,-5 C-7,-13 -6,-23 0,-27 C7,-22 7,-12 0,-5Z" transform="rotate(72)" fill="#9a9c62"/><path d="M0,-5 C-7,-13 -6,-23 0,-27 C7,-22 7,-12 0,-5Z" transform="rotate(144)" fill="#e0a640"/><path d="M0,-5 C-7,-13 -6,-23 0,-27 C7,-22 7,-12 0,-5Z" transform="rotate(216)" fill="#9a9c62"/><path d="M0,-5 C-7,-13 -6,-23 0,-27 C7,-22 7,-12 0,-5Z" transform="rotate(288)" fill="#e0a640"/><circle cy="-5" r="4.2" fill="#e0a640"/><circle cx="-1" cy="-6" r="1.3" fill="#f5e8c8"/></g></g><g transform="translate(168.3,716.3) scale(0.8)"><g>
<path d="M0,0 C2,-10 -2,-17 1,-25 M0,-10 Q-13,-17 -17,-10 Q-8,-7 0,-6 M0,-16 Q12,-23 17,-16 Q9,-13 0,-12" stroke="#46533b" stroke-width="2.2" fill="#69764d" stroke-linecap="round"/>
<path d="M0,-5 C-7,-13 -6,-23 0,-27 C7,-22 7,-12 0,-5Z" transform="rotate(0)" fill="#ffffff"/><path d="M0,-5 C-7,-13 -6,-23 0,-27 C7,-22 7,-12 0,-5Z" transform="rotate(72)" fill="#9a9c62"/><path d="M0,-5 C-7,-13 -6,-23 0,-27 C7,-22 7,-12 0,-5Z" transform="rotate(144)" fill="#ffffff"/><path d="M0,-5 C-7,-13 -6,-23 0,-27 C7,-22 7,-12 0,-5Z" transform="rotate(216)" fill="#9a9c62"/><path d="M0,-5 C-7,-13 -6,-23 0,-27 C7,-22 7,-12 0,-5Z" transform="rotate(288)" fill="#ffffff"/><circle cy="-5" r="4.2" fill="#e0a640"/><circle cx="-1" cy="-6" r="1.3" fill="#f5e8c8"/></g></g><g transform="translate(679.1,698) scale(0.7)"><g>
<path d="M0,0 C2,-10 -2,-17 1,-25 M0,-10 Q-13,-17 -17,-10 Q-8,-7 0,-6 M0,-16 Q12,-23 17,-16 Q9,-13 0,-12" stroke="#46533b" stroke-width="2.2" fill="#69764d" stroke-linecap="round"/>
<path d="M0,-5 C-7,-13 -6,-23 0,-27 C7,-22 7,-12 0,-5Z" transform="rotate(0)" fill="#526f83"/><path d="M0,-5 C-7,-13 -6,-23 0,-27 C7,-22 7,-12 0,-5Z" transform="rotate(72)" fill="#9a9c62"/><path d="M0,-5 C-7,-13 -6,-23 0,-27 C7,-22 7,-12 0,-5Z" transform="rotate(144)" fill="#526f83"/><path d="M0,-5 C-7,-13 -6,-23 0,-27 C7,-22 7,-12 0,-5Z" transform="rotate(216)" fill="#9a9c62"/><path d="M0,-5 C-7,-13 -6,-23 0,-27 C7,-22 7,-12 0,-5Z" transform="rotate(288)" fill="#526f83"/><circle cy="-5" r="4.2" fill="#e0a640"/><circle cx="-1" cy="-6" r="1.3" fill="#f5e8c8"/></g></g><g transform="translate(80,730) scale(1.15)">
<path d="M-15,0 C-8,-31 -22,-59 -10,-91 C-3,-112 -17,-127 -28,-143 L-22,-151 C-3,-140 10,-121 5,-99 C1,-74 24,-41 17,0Z" fill="url(#gWood)"/>
<path d="M-5,-76 C-33,-99 -45,-121 -53,-143 M2,-89 C25,-105 39,-122 48,-145 M-11,-111 C-6,-132 -2,-148 1,-166" fill="none" stroke="#655044" stroke-width="9" stroke-linecap="round"/>
<path d="M-91,-137 C-104,-163 -83,-195 -54,-196 C-47,-225 -9,-240 17,-222 C41,-249 83,-228 82,-198 C114,-189 125,-155 104,-135 C110,-105 79,-85 52,-99 C25,-77 -8,-91 -17,-108 C-47,-86 -83,-104 -91,-137Z" fill="#46533b"/>
<g>
<path d="M-82,-142 C-93,-165 -70,-189 -45,-186 C-37,-216 -2,-225 19,-205 C41,-230 73,-210 69,-183 C100,-176 108,-146 88,-128 C93,-102 62,-88 42,-105 C22,-83 -8,-98 -13,-116 C-40,-95 -74,-109 -82,-142Z" fill="url(#gLeaf)"/>
<path d="M-55,-169 C-39,-190 -17,-194 3,-183 M9,-199 C32,-213 55,-201 59,-181 M-27,-125 C-3,-145 23,-147 47,-132 M-69,-143 C-45,-158 -20,-157 1,-143" fill="none" stroke="#9a9c62" stroke-width="5" stroke-linecap="round" opacity=".62"/>
<ellipse cx="-48" cy="-177" rx="11" ry="5" transform="rotate(-32 -48 -177)" fill="#9a9c62"/><ellipse cx="28" cy="-208" rx="12" ry="5" transform="rotate(24 28 -208)" fill="#9a9c62"/><ellipse cx="68" cy="-159" rx="12" ry="5" transform="rotate(-18 68 -159)" fill="#9a9c62"/><ellipse cx="-3" cy="-119" rx="11" ry="5" transform="rotate(18 -3 -119)" fill="#9a9c62"/><ellipse cx="44" cy="-126" rx="10" ry="5" transform="rotate(-28 44 -126)" fill="#9a9c62"/></g></g><g transform="translate(1110,735) scale(1)"><path d="M-6,0 C-3,-31 -8,-72 0,-118" fill="none" stroke="url(#gWood)" stroke-width="12"/>
<path d="M0,-119 C-12,-105 -20,-91 -41,-81 C-27,-77 -12,-81 0,-91 C13,-78 31,-78 47,-82 C27,-94 14,-107 0,-119Z" fill="#46533b"/>
<path d="M0,-92 C-16,-76 -30,-58 -56,-46 C-37,-42 -17,-49 0,-64 C17,-48 40,-44 61,-49 C36,-62 17,-78 0,-92Z" fill="url(#gLeaf)"/>
<path d="M0,-64 C-20,-47 -39,-28 -72,-14 C-48,-10 -19,-19 0,-37 C21,-18 50,-11 75,-18 C45,-31 20,-48 0,-64Z" fill="#46533b"/>
<path d="M-38,-80 L-2,-91 M-48,-45 L-2,-61 M-59,-14 L-2,-34" stroke="#9a9c62" stroke-width="3" opacity=".55"/></g><g transform="translate(220,635) scale(0.84)"><ellipse cx="0" cy="9" rx="132" ry="20" fill="#171914" opacity=".2" filter="url(#fSoft)"/><g filter="url(#fObject)"><g transform="translate(0,0) scale(1.45)">
<path d="M-15,0 C-8,-31 -22,-59 -10,-91 C-3,-112 -17,-127 -28,-143 L-22,-151 C-3,-140 10,-121 5,-99 C1,-74 24,-41 17,0Z" fill="url(#gWood)"/>
<path d="M-5,-76 C-33,-99 -45,-121 -53,-143 M2,-89 C25,-105 39,-122 48,-145 M-11,-111 C-6,-132 -2,-148 1,-166" fill="none" stroke="#655044" stroke-width="9" stroke-linecap="round"/>
<path d="M-91,-137 C-104,-163 -83,-195 -54,-196 C-47,-225 -9,-240 17,-222 C41,-249 83,-228 82,-198 C114,-189 125,-155 104,-135 C110,-105 79,-85 52,-99 C25,-77 -8,-91 -17,-108 C-47,-86 -83,-104 -91,-137Z" fill="#46533b"/>
<g>
<path d="M-82,-142 C-93,-165 -70,-189 -45,-186 C-37,-216 -2,-225 19,-205 C41,-230 73,-210 69,-183 C100,-176 108,-146 88,-128 C93,-102 62,-88 42,-105 C22,-83 -8,-98 -13,-116 C-40,-95 -74,-109 -82,-142Z" fill="url(#gLeaf)"/>
<path d="M-55,-169 C-39,-190 -17,-194 3,-183 M9,-199 C32,-213 55,-201 59,-181 M-27,-125 C-3,-145 23,-147 47,-132 M-69,-143 C-45,-158 -20,-157 1,-143" fill="none" stroke="#9a9c62" stroke-width="5" stroke-linecap="round" opacity=".62"/>
<ellipse cx="-48" cy="-177" rx="11" ry="5" transform="rotate(-32 -48 -177)" fill="#9a9c62"/><ellipse cx="28" cy="-208" rx="12" ry="5" transform="rotate(24 28 -208)" fill="#9a9c62"/><ellipse cx="68" cy="-159" rx="12" ry="5" transform="rotate(-18 68 -159)" fill="#9a9c62"/><ellipse cx="-3" cy="-119" rx="11" ry="5" transform="rotate(18 -3 -119)" fill="#9a9c62"/><ellipse cx="44" cy="-126" rx="10" ry="5" transform="rotate(-28 44 -126)" fill="#9a9c62"/></g></g></g></g><g transform="translate(505,535) scale(1.15)"><ellipse cx="0" cy="9" rx="132" ry="20" fill="#171914" opacity=".2" filter="url(#fSoft)"/><g filter="url(#fObject)"><path d="M-128,-190 Q-70,-218 0,-194 Q67,-215 128,-188 L101,-115 Q70,-72 111,0 H-111 Q-66,-62 -98,-116Z" fill="#7f786f"/><path d="M-53,-177 Q-42,-158 -51,-127 C-59,-93 -35,-69 -41,-35 Q-14,-58 -20,-91 C-26,-124 -6,-151 -15,-178Z M22,-181 Q38,-151 25,-119 C12,-85 42,-58 35,-29 Q62,-60 49,-96 C38,-128 59,-157 43,-183Z" fill="url(#gWater)"/><path d="M-45,-155 Q-53,-109 -32,-75 M31,-158 Q18,-111 42,-82" fill="none" stroke="#f3f1e9" stroke-width="7" opacity=".8"/><ellipse cy="-9" rx="151" ry="28" fill="url(#gWater)"/><path d="M-120,-10 Q-62,-27 0,-9 T120,-12" fill="none" stroke="#e4eeeb" stroke-width="5" opacity=".62"/></g></g><g transform="translate(785,645) scale(0.9)"><ellipse cx="0" cy="9" rx="132" ry="20" fill="#171914" opacity=".2" filter="url(#fSoft)"/><g filter="url(#fObject)"><path d="M0,0 Q-6,-66 0,-125" stroke="#46533b" stroke-width="8"/><path d="M0,-70 q-46,-34 -55,-8 q28,2 55,24 M0,-48 q42,-30 55,-7 q-28,2 -55,23" fill="#69764d"/><circle cy="-135" r="29" fill="#c3634c"/><circle cx="-34" cy="-135" r="20" fill="#e0a640"/><circle cx="34" cy="-135" r="20" fill="#526f83"/><circle cy="-169" r="20" fill="#fff2c9"/><circle cy="-135" r="12" fill="#e0a640"/></g></g><g transform="translate(1030,545) scale(1.12)"><ellipse cx="0" cy="9" rx="132" ry="20" fill="#171914" opacity=".2" filter="url(#fSoft)"/><g filter="url(#fObject)"><path d="M-205,0 C-158,-61 -113,-131 -44,-220 Q-29,-239 -10,-213 L38,-144 L83,-190 Q96,-208 111,-186 C144,-135 177,-74 210,0Z" fill="#9d9273"/><path d="M-45,-218 Q-25,-229 -9,-211 L19,-170 L-8,-179 L-23,-161 L-31,-184 L-54,-177Z M82,-188 Q98,-202 112,-183 L143,-132 L115,-145 L99,-125 L91,-147 L71,-139Z" fill="#e8e6dd" opacity=".92"/><path d="M-154,-65 Q-102,-115 -71,-135 M-13,-112 L31,-91 M111,-93 L166,-57" stroke="#7d805d" stroke-width="7" fill="none" opacity=".38"/><path d="M-204,0 Q-92,-10 0,0 T210,0" stroke="#4c5c47" stroke-width="8" fill="none"/></g></g><g transform="translate(188.5,785.3) scale(1.4)"><g>
<path d="M0,0 C2,-10 -2,-17 1,-25 M0,-10 Q-13,-17 -17,-10 Q-8,-7 0,-6 M0,-16 Q12,-23 17,-16 Q9,-13 0,-12" stroke="#46533b" stroke-width="2.2" fill="#69764d" stroke-linecap="round"/>
<path d="M0,-5 C-7,-13 -6,-23 0,-27 C7,-22 7,-12 0,-5Z" transform="rotate(0)" fill="#c3634c"/><path d="M0,-5 C-7,-13 -6,-23 0,-27 C7,-22 7,-12 0,-5Z" transform="rotate(72)" fill="#9a9c62"/><path d="M0,-5 C-7,-13 -6,-23 0,-27 C7,-22 7,-12 0,-5Z" transform="rotate(144)" fill="#c3634c"/><path d="M0,-5 C-7,-13 -6,-23 0,-27 C7,-22 7,-12 0,-5Z" transform="rotate(216)" fill="#9a9c62"/><path d="M0,-5 C-7,-13 -6,-23 0,-27 C7,-22 7,-12 0,-5Z" transform="rotate(288)" fill="#c3634c"/><circle cy="-5" r="4.2" fill="#e0a640"/><circle cx="-1" cy="-6" r="1.3" fill="#f5e8c8"/></g></g><g transform="translate(890.8,775.6) scale(1.2)"><g>
<path d="M0,0 C2,-10 -2,-17 1,-25 M0,-10 Q-13,-17 -17,-10 Q-8,-7 0,-6 M0,-16 Q12,-23 17,-16 Q9,-13 0,-12" stroke="#46533b" stroke-width="2.2" fill="#69764d" stroke-linecap="round"/>
<path d="M0,-5 C-7,-13 -6,-23 0,-27 C7,-22 7,-12 0,-5Z" transform="rotate(0)" fill="#e0a640"/><path d="M0,-5 C-7,-13 -6,-23 0,-27 C7,-22 7,-12 0,-5Z" transform="rotate(72)" fill="#9a9c62"/><path d="M0,-5 C-7,-13 -6,-23 0,-27 C7,-22 7,-12 0,-5Z" transform="rotate(144)" fill="#e0a640"/><path d="M0,-5 C-7,-13 -6,-23 0,-27 C7,-22 7,-12 0,-5Z" transform="rotate(216)" fill="#9a9c62"/><path d="M0,-5 C-7,-13 -6,-23 0,-27 C7,-22 7,-12 0,-5Z" transform="rotate(288)" fill="#e0a640"/><circle cy="-5" r="4.2" fill="#e0a640"/><circle cx="-1" cy="-6" r="1.3" fill="#f5e8c8"/></g></g><g transform="translate(1047.4,738.9) scale(0.7)"><g>
<path d="M0,0 C2,-10 -2,-17 1,-25 M0,-10 Q-13,-17 -17,-10 Q-8,-7 0,-6 M0,-16 Q12,-23 17,-16 Q9,-13 0,-12" stroke="#46533b" stroke-width="2.2" fill="#69764d" stroke-linecap="round"/>
<path d="M0,-5 C-7,-13 -6,-23 0,-27 C7,-22 7,-12 0,-5Z" transform="rotate(0)" fill="#ffffff"/><path d="M0,-5 C-7,-13 -6,-23 0,-27 C7,-22 7,-12 0,-5Z" transform="rotate(72)" fill="#9a9c62"/><path d="M0,-5 C-7,-13 -6,-23 0,-27 C7,-22 7,-12 0,-5Z" transform="rotate(144)" fill="#ffffff"/><path d="M0,-5 C-7,-13 -6,-23 0,-27 C7,-22 7,-12 0,-5Z" transform="rotate(216)" fill="#9a9c62"/><path d="M0,-5 C-7,-13 -6,-23 0,-27 C7,-22 7,-12 0,-5Z" transform="rotate(288)" fill="#ffffff"/><circle cy="-5" r="4.2" fill="#e0a640"/><circle cx="-1" cy="-6" r="1.3" fill="#f5e8c8"/></g></g><g transform="translate(29.7,766) scale(1.1)"><g>
<path d="M0,0 C2,-10 -2,-17 1,-25 M0,-10 Q-13,-17 -17,-10 Q-8,-7 0,-6 M0,-16 Q12,-23 17,-16 Q9,-13 0,-12" stroke="#46533b" stroke-width="2.2" fill="#69764d" stroke-linecap="round"/>
<path d="M0,-5 C-7,-13 -6,-23 0,-27 C7,-22 7,-12 0,-5Z" transform="rotate(0)" fill="#526f83"/><path d="M0,-5 C-7,-13 -6,-23 0,-27 C7,-22 7,-12 0,-5Z" transform="rotate(72)" fill="#9a9c62"/><path d="M0,-5 C-7,-13 -6,-23 0,-27 C7,-22 7,-12 0,-5Z" transform="rotate(144)" fill="#526f83"/><path d="M0,-5 C-7,-13 -6,-23 0,-27 C7,-22 7,-12 0,-5Z" transform="rotate(216)" fill="#9a9c62"/><path d="M0,-5 C-7,-13 -6,-23 0,-27 C7,-22 7,-12 0,-5Z" transform="rotate(288)" fill="#526f83"/><circle cy="-5" r="4.2" fill="#e0a640"/><circle cx="-1" cy="-6" r="1.3" fill="#f5e8c8"/></g></g><g transform="translate(935.3,766.6) scale(1.1)"><g>
<path d="M0,0 C2,-10 -2,-17 1,-25 M0,-10 Q-13,-17 -17,-10 Q-8,-7 0,-6 M0,-16 Q12,-23 17,-16 Q9,-13 0,-12" stroke="#46533b" stroke-width="2.2" fill="#69764d" stroke-linecap="round"/>
<path d="M0,-5 C-7,-13 -6,-23 0,-27 C7,-22 7,-12 0,-5Z" transform="rotate(0)" fill="#c3634c"/><path d="M0,-5 C-7,-13 -6,-23 0,-27 C7,-22 7,-12 0,-5Z" transform="rotate(72)" fill="#9a9c62"/><path d="M0,-5 C-7,-13 -6,-23 0,-27 C7,-22 7,-12 0,-5Z" transform="rotate(144)" fill="#c3634c"/><path d="M0,-5 C-7,-13 -6,-23 0,-27 C7,-22 7,-12 0,-5Z" transform="rotate(216)" fill="#9a9c62"/><path d="M0,-5 C-7,-13 -6,-23 0,-27 C7,-22 7,-12 0,-5Z" transform="rotate(288)" fill="#c3634c"/><circle cy="-5" r="4.2" fill="#e0a640"/><circle cx="-1" cy="-6" r="1.3" fill="#f5e8c8"/></g></g><g transform="translate(594.8,759.2) scale(1)"><g>
<path d="M0,0 C2,-10 -2,-17 1,-25 M0,-10 Q-13,-17 -17,-10 Q-8,-7 0,-6 M0,-16 Q12,-23 17,-16 Q9,-13 0,-12" stroke="#46533b" stroke-width="2.2" fill="#69764d" stroke-linecap="round"/>
<path d="M0,-5 C-7,-13 -6,-23 0,-27 C7,-22 7,-12 0,-5Z" transform="rotate(0)" fill="#e0a640"/><path d="M0,-5 C-7,-13 -6,-23 0,-27 C7,-22 7,-12 0,-5Z" transform="rotate(72)" fill="#9a9c62"/><path d="M0,-5 C-7,-13 -6,-23 0,-27 C7,-22 7,-12 0,-5Z" transform="rotate(144)" fill="#e0a640"/><path d="M0,-5 C-7,-13 -6,-23 0,-27 C7,-22 7,-12 0,-5Z" transform="rotate(216)" fill="#9a9c62"/><path d="M0,-5 C-7,-13 -6,-23 0,-27 C7,-22 7,-12 0,-5Z" transform="rotate(288)" fill="#e0a640"/><circle cy="-5" r="4.2" fill="#e0a640"/><circle cx="-1" cy="-6" r="1.3" fill="#f5e8c8"/></g></g><g transform="translate(290.1,794.3) scale(1.5)"><g>
<path d="M0,0 C2,-10 -2,-17 1,-25 M0,-10 Q-13,-17 -17,-10 Q-8,-7 0,-6 M0,-16 Q12,-23 17,-16 Q9,-13 0,-12" stroke="#46533b" stroke-width="2.2" fill="#69764d" stroke-linecap="round"/>
<path d="M0,-5 C-7,-13 -6,-23 0,-27 C7,-22 7,-12 0,-5Z" transform="rotate(0)" fill="#ffffff"/><path d="M0,-5 C-7,-13 -6,-23 0,-27 C7,-22 7,-12 0,-5Z" transform="rotate(72)" fill="#9a9c62"/><path d="M0,-5 C-7,-13 -6,-23 0,-27 C7,-22 7,-12 0,-5Z" transform="rotate(144)" fill="#ffffff"/><path d="M0,-5 C-7,-13 -6,-23 0,-27 C7,-22 7,-12 0,-5Z" transform="rotate(216)" fill="#9a9c62"/><path d="M0,-5 C-7,-13 -6,-23 0,-27 C7,-22 7,-12 0,-5Z" transform="rotate(288)" fill="#ffffff"/><circle cy="-5" r="4.2" fill="#e0a640"/><circle cx="-1" cy="-6" r="1.3" fill="#f5e8c8"/></g></g><g transform="translate(2,760) scale(1)"><g>
<path d="M0,0 C2,-10 -2,-17 1,-25 M0,-10 Q-13,-17 -17,-10 Q-8,-7 0,-6 M0,-16 Q12,-23 17,-16 Q9,-13 0,-12" stroke="#46533b" stroke-width="2.2" fill="#69764d" stroke-linecap="round"/>
<path d="M0,-5 C-7,-13 -6,-23 0,-27 C7,-22 7,-12 0,-5Z" transform="rotate(0)" fill="#526f83"/><path d="M0,-5 C-7,-13 -6,-23 0,-27 C7,-22 7,-12 0,-5Z" transform="rotate(72)" fill="#9a9c62"/><path d="M0,-5 C-7,-13 -6,-23 0,-27 C7,-22 7,-12 0,-5Z" transform="rotate(144)" fill="#526f83"/><path d="M0,-5 C-7,-13 -6,-23 0,-27 C7,-22 7,-12 0,-5Z" transform="rotate(216)" fill="#9a9c62"/><path d="M0,-5 C-7,-13 -6,-23 0,-27 C7,-22 7,-12 0,-5Z" transform="rotate(288)" fill="#526f83"/><circle cy="-5" r="4.2" fill="#e0a640"/><circle cx="-1" cy="-6" r="1.3" fill="#f5e8c8"/></g></g><g transform="translate(505.2,760.1) scale(1)"><g>
<path d="M0,0 C2,-10 -2,-17 1,-25 M0,-10 Q-13,-17 -17,-10 Q-8,-7 0,-6 M0,-16 Q12,-23 17,-16 Q9,-13 0,-12" stroke="#46533b" stroke-width="2.2" fill="#69764d" stroke-linecap="round"/>
<path d="M0,-5 C-7,-13 -6,-23 0,-27 C7,-22 7,-12 0,-5Z" transform="rotate(0)" fill="#c3634c"/><path d="M0,-5 C-7,-13 -6,-23 0,-27 C7,-22 7,-12 0,-5Z" transform="rotate(72)" fill="#9a9c62"/><path d="M0,-5 C-7,-13 -6,-23 0,-27 C7,-22 7,-12 0,-5Z" transform="rotate(144)" fill="#c3634c"/><path d="M0,-5 C-7,-13 -6,-23 0,-27 C7,-22 7,-12 0,-5Z" transform="rotate(216)" fill="#9a9c62"/><path d="M0,-5 C-7,-13 -6,-23 0,-27 C7,-22 7,-12 0,-5Z" transform="rotate(288)" fill="#c3634c"/><circle cy="-5" r="4.2" fill="#e0a640"/><circle cx="-1" cy="-6" r="1.3" fill="#f5e8c8"/></g></g><g transform="translate(730.6,784.8) scale(1.3)"><g>
<path d="M0,0 C2,-10 -2,-17 1,-25 M0,-10 Q-13,-17 -17,-10 Q-8,-7 0,-6 M0,-16 Q12,-23 17,-16 Q9,-13 0,-12" stroke="#46533b" stroke-width="2.2" fill="#69764d" stroke-linecap="round"/>
<path d="M0,-5 C-7,-13 -6,-23 0,-27 C7,-22 7,-12 0,-5Z" transform="rotate(0)" fill="#e0a640"/><path d="M0,-5 C-7,-13 -6,-23 0,-27 C7,-22 7,-12 0,-5Z" transform="rotate(72)" fill="#9a9c62"/><path d="M0,-5 C-7,-13 -6,-23 0,-27 C7,-22 7,-12 0,-5Z" transform="rotate(144)" fill="#e0a640"/><path d="M0,-5 C-7,-13 -6,-23 0,-27 C7,-22 7,-12 0,-5Z" transform="rotate(216)" fill="#9a9c62"/><path d="M0,-5 C-7,-13 -6,-23 0,-27 C7,-22 7,-12 0,-5Z" transform="rotate(288)" fill="#e0a640"/><circle cy="-5" r="4.2" fill="#e0a640"/><circle cx="-1" cy="-6" r="1.3" fill="#f5e8c8"/></g></g><g transform="translate(913.3,752.9) scale(0.9)"><g>
<path d="M0,0 C2,-10 -2,-17 1,-25 M0,-10 Q-13,-17 -17,-10 Q-8,-7 0,-6 M0,-16 Q12,-23 17,-16 Q9,-13 0,-12" stroke="#46533b" stroke-width="2.2" fill="#69764d" stroke-linecap="round"/>
<path d="M0,-5 C-7,-13 -6,-23 0,-27 C7,-22 7,-12 0,-5Z" transform="rotate(0)" fill="#ffffff"/><path d="M0,-5 C-7,-13 -6,-23 0,-27 C7,-22 7,-12 0,-5Z" transform="rotate(72)" fill="#9a9c62"/><path d="M0,-5 C-7,-13 -6,-23 0,-27 C7,-22 7,-12 0,-5Z" transform="rotate(144)" fill="#ffffff"/><path d="M0,-5 C-7,-13 -6,-23 0,-27 C7,-22 7,-12 0,-5Z" transform="rotate(216)" fill="#9a9c62"/><path d="M0,-5 C-7,-13 -6,-23 0,-27 C7,-22 7,-12 0,-5Z" transform="rotate(288)" fill="#ffffff"/><circle cy="-5" r="4.2" fill="#e0a640"/><circle cx="-1" cy="-6" r="1.3" fill="#f5e8c8"/></g></g><g transform="translate(744,755.6) scale(0.9)"><g>
<path d="M0,0 C2,-10 -2,-17 1,-25 M0,-10 Q-13,-17 -17,-10 Q-8,-7 0,-6 M0,-16 Q12,-23 17,-16 Q9,-13 0,-12" stroke="#46533b" stroke-width="2.2" fill="#69764d" stroke-linecap="round"/>
<path d="M0,-5 C-7,-13 -6,-23 0,-27 C7,-22 7,-12 0,-5Z" transform="rotate(0)" fill="#526f83"/><path d="M0,-5 C-7,-13 -6,-23 0,-27 C7,-22 7,-12 0,-5Z" transform="rotate(72)" fill="#9a9c62"/><path d="M0,-5 C-7,-13 -6,-23 0,-27 C7,-22 7,-12 0,-5Z" transform="rotate(144)" fill="#526f83"/><path d="M0,-5 C-7,-13 -6,-23 0,-27 C7,-22 7,-12 0,-5Z" transform="rotate(216)" fill="#9a9c62"/><path d="M0,-5 C-7,-13 -6,-23 0,-27 C7,-22 7,-12 0,-5Z" transform="rotate(288)" fill="#526f83"/><circle cy="-5" r="4.2" fill="#e0a640"/><circle cx="-1" cy="-6" r="1.3" fill="#f5e8c8"/></g></g><g transform="translate(45,751.3) scale(0.8)"><g>
<path d="M0,0 C2,-10 -2,-17 1,-25 M0,-10 Q-13,-17 -17,-10 Q-8,-7 0,-6 M0,-16 Q12,-23 17,-16 Q9,-13 0,-12" stroke="#46533b" stroke-width="2.2" fill="#69764d" stroke-linecap="round"/>
<path d="M0,-5 C-7,-13 -6,-23 0,-27 C7,-22 7,-12 0,-5Z" transform="rotate(0)" fill="#c3634c"/><path d="M0,-5 C-7,-13 -6,-23 0,-27 C7,-22 7,-12 0,-5Z" transform="rotate(72)" fill="#9a9c62"/><path d="M0,-5 C-7,-13 -6,-23 0,-27 C7,-22 7,-12 0,-5Z" transform="rotate(144)" fill="#c3634c"/><path d="M0,-5 C-7,-13 -6,-23 0,-27 C7,-22 7,-12 0,-5Z" transform="rotate(216)" fill="#9a9c62"/><path d="M0,-5 C-7,-13 -6,-23 0,-27 C7,-22 7,-12 0,-5Z" transform="rotate(288)" fill="#c3634c"/><circle cy="-5" r="4.2" fill="#e0a640"/><circle cx="-1" cy="-6" r="1.3" fill="#f5e8c8"/></g></g><g transform="translate(186.1,772.1) scale(1.2)"><g>
<path d="M0,0 C2,-10 -2,-17 1,-25 M0,-10 Q-13,-17 -17,-10 Q-8,-7 0,-6 M0,-16 Q12,-23 17,-16 Q9,-13 0,-12" stroke="#46533b" stroke-width="2.2" fill="#69764d" stroke-linecap="round"/>
<path d="M0,-5 C-7,-13 -6,-23 0,-27 C7,-22 7,-12 0,-5Z" transform="rotate(0)" fill="#e0a640"/><path d="M0,-5 C-7,-13 -6,-23 0,-27 C7,-22 7,-12 0,-5Z" transform="rotate(72)" fill="#9a9c62"/><path d="M0,-5 C-7,-13 -6,-23 0,-27 C7,-22 7,-12 0,-5Z" transform="rotate(144)" fill="#e0a640"/><path d="M0,-5 C-7,-13 -6,-23 0,-27 C7,-22 7,-12 0,-5Z" transform="rotate(216)" fill="#9a9c62"/><path d="M0,-5 C-7,-13 -6,-23 0,-27 C7,-22 7,-12 0,-5Z" transform="rotate(288)" fill="#e0a640"/><circle cy="-5" r="4.2" fill="#e0a640"/><circle cx="-1" cy="-6" r="1.3" fill="#f5e8c8"/></g></g><g transform="translate(1162.6,739.7) scale(0.7)"><g>
<path d="M0,0 C2,-10 -2,-17 1,-25 M0,-10 Q-13,-17 -17,-10 Q-8,-7 0,-6 M0,-16 Q12,-23 17,-16 Q9,-13 0,-12" stroke="#46533b" stroke-width="2.2" fill="#69764d" stroke-linecap="round"/>
<path d="M0,-5 C-7,-13 -6,-23 0,-27 C7,-22 7,-12 0,-5Z" transform="rotate(0)" fill="#ffffff"/><path d="M0,-5 C-7,-13 -6,-23 0,-27 C7,-22 7,-12 0,-5Z" transform="rotate(72)" fill="#9a9c62"/><path d="M0,-5 C-7,-13 -6,-23 0,-27 C7,-22 7,-12 0,-5Z" transform="rotate(144)" fill="#ffffff"/><path d="M0,-5 C-7,-13 -6,-23 0,-27 C7,-22 7,-12 0,-5Z" transform="rotate(216)" fill="#9a9c62"/><path d="M0,-5 C-7,-13 -6,-23 0,-27 C7,-22 7,-12 0,-5Z" transform="rotate(288)" fill="#ffffff"/><circle cy="-5" r="4.2" fill="#e0a640"/><circle cx="-1" cy="-6" r="1.3" fill="#f5e8c8"/></g></g><g transform="translate(351.9,743) scale(0.7)"><g>
<path d="M0,0 C2,-10 -2,-17 1,-25 M0,-10 Q-13,-17 -17,-10 Q-8,-7 0,-6 M0,-16 Q12,-23 17,-16 Q9,-13 0,-12" stroke="#46533b" stroke-width="2.2" fill="#69764d" stroke-linecap="round"/>
<path d="M0,-5 C-7,-13 -6,-23 0,-27 C7,-22 7,-12 0,-5Z" transform="rotate(0)" fill="#526f83"/><path d="M0,-5 C-7,-13 -6,-23 0,-27 C7,-22 7,-12 0,-5Z" transform="rotate(72)" fill="#9a9c62"/><path d="M0,-5 C-7,-13 -6,-23 0,-27 C7,-22 7,-12 0,-5Z" transform="rotate(144)" fill="#526f83"/><path d="M0,-5 C-7,-13 -6,-23 0,-27 C7,-22 7,-12 0,-5Z" transform="rotate(216)" fill="#9a9c62"/><path d="M0,-5 C-7,-13 -6,-23 0,-27 C7,-22 7,-12 0,-5Z" transform="rotate(288)" fill="#526f83"/><circle cy="-5" r="4.2" fill="#e0a640"/><circle cx="-1" cy="-6" r="1.3" fill="#f5e8c8"/></g></g><g transform="translate(468.3,784.3) scale(1.3)"><g>
<path d="M0,0 C2,-10 -2,-17 1,-25 M0,-10 Q-13,-17 -17,-10 Q-8,-7 0,-6 M0,-16 Q12,-23 17,-16 Q9,-13 0,-12" stroke="#46533b" stroke-width="2.2" fill="#69764d" stroke-linecap="round"/>
<path d="M0,-5 C-7,-13 -6,-23 0,-27 C7,-22 7,-12 0,-5Z" transform="rotate(0)" fill="#c3634c"/><path d="M0,-5 C-7,-13 -6,-23 0,-27 C7,-22 7,-12 0,-5Z" transform="rotate(72)" fill="#9a9c62"/><path d="M0,-5 C-7,-13 -6,-23 0,-27 C7,-22 7,-12 0,-5Z" transform="rotate(144)" fill="#c3634c"/><path d="M0,-5 C-7,-13 -6,-23 0,-27 C7,-22 7,-12 0,-5Z" transform="rotate(216)" fill="#9a9c62"/><path d="M0,-5 C-7,-13 -6,-23 0,-27 C7,-22 7,-12 0,-5Z" transform="rotate(288)" fill="#c3634c"/><circle cy="-5" r="4.2" fill="#e0a640"/><circle cx="-1" cy="-6" r="1.3" fill="#f5e8c8"/></g></g><g transform="translate(934.4,756.3) scale(0.9)"><g>
<path d="M0,0 C2,-10 -2,-17 1,-25 M0,-10 Q-13,-17 -17,-10 Q-8,-7 0,-6 M0,-16 Q12,-23 17,-16 Q9,-13 0,-12" stroke="#46533b" stroke-width="2.2" fill="#69764d" stroke-linecap="round"/>
<path d="M0,-5 C-7,-13 -6,-23 0,-27 C7,-22 7,-12 0,-5Z" transform="rotate(0)" fill="#e0a640"/><path d="M0,-5 C-7,-13 -6,-23 0,-27 C7,-22 7,-12 0,-5Z" transform="rotate(72)" fill="#9a9c62"/><path d="M0,-5 C-7,-13 -6,-23 0,-27 C7,-22 7,-12 0,-5Z" transform="rotate(144)" fill="#e0a640"/><path d="M0,-5 C-7,-13 -6,-23 0,-27 C7,-22 7,-12 0,-5Z" transform="rotate(216)" fill="#9a9c62"/><path d="M0,-5 C-7,-13 -6,-23 0,-27 C7,-22 7,-12 0,-5Z" transform="rotate(288)" fill="#e0a640"/><circle cy="-5" r="4.2" fill="#e0a640"/><circle cx="-1" cy="-6" r="1.3" fill="#f5e8c8"/></g></g><g transform="translate(1188.3,767.4) scale(1.1)"><g>
<path d="M0,0 C2,-10 -2,-17 1,-25 M0,-10 Q-13,-17 -17,-10 Q-8,-7 0,-6 M0,-16 Q12,-23 17,-16 Q9,-13 0,-12" stroke="#46533b" stroke-width="2.2" fill="#69764d" stroke-linecap="round"/>
<path d="M0,-5 C-7,-13 -6,-23 0,-27 C7,-22 7,-12 0,-5Z" transform="rotate(0)" fill="#ffffff"/><path d="M0,-5 C-7,-13 -6,-23 0,-27 C7,-22 7,-12 0,-5Z" transform="rotate(72)" fill="#9a9c62"/><path d="M0,-5 C-7,-13 -6,-23 0,-27 C7,-22 7,-12 0,-5Z" transform="rotate(144)" fill="#ffffff"/><path d="M0,-5 C-7,-13 -6,-23 0,-27 C7,-22 7,-12 0,-5Z" transform="rotate(216)" fill="#9a9c62"/><path d="M0,-5 C-7,-13 -6,-23 0,-27 C7,-22 7,-12 0,-5Z" transform="rotate(288)" fill="#ffffff"/><circle cy="-5" r="4.2" fill="#e0a640"/><circle cx="-1" cy="-6" r="1.3" fill="#f5e8c8"/></g></g><g transform="translate(344.9,747.4) scale(0.8)"><g>
<path d="M0,0 C2,-10 -2,-17 1,-25 M0,-10 Q-13,-17 -17,-10 Q-8,-7 0,-6 M0,-16 Q12,-23 17,-16 Q9,-13 0,-12" stroke="#46533b" stroke-width="2.2" fill="#69764d" stroke-linecap="round"/>
<path d="M0,-5 C-7,-13 -6,-23 0,-27 C7,-22 7,-12 0,-5Z" transform="rotate(0)" fill="#526f83"/><path d="M0,-5 C-7,-13 -6,-23 0,-27 C7,-22 7,-12 0,-5Z" transform="rotate(72)" fill="#9a9c62"/><path d="M0,-5 C-7,-13 -6,-23 0,-27 C7,-22 7,-12 0,-5Z" transform="rotate(144)" fill="#526f83"/><path d="M0,-5 C-7,-13 -6,-23 0,-27 C7,-22 7,-12 0,-5Z" transform="rotate(216)" fill="#9a9c62"/><path d="M0,-5 C-7,-13 -6,-23 0,-27 C7,-22 7,-12 0,-5Z" transform="rotate(288)" fill="#526f83"/><circle cy="-5" r="4.2" fill="#e0a640"/><circle cx="-1" cy="-6" r="1.3" fill="#f5e8c8"/></g></g><g transform="translate(730.7,740.3) scale(0.7)"><g>
<path d="M0,0 C2,-10 -2,-17 1,-25 M0,-10 Q-13,-17 -17,-10 Q-8,-7 0,-6 M0,-16 Q12,-23 17,-16 Q9,-13 0,-12" stroke="#46533b" stroke-width="2.2" fill="#69764d" stroke-linecap="round"/>
<path d="M0,-5 C-7,-13 -6,-23 0,-27 C7,-22 7,-12 0,-5Z" transform="rotate(0)" fill="#c3634c"/><path d="M0,-5 C-7,-13 -6,-23 0,-27 C7,-22 7,-12 0,-5Z" transform="rotate(72)" fill="#9a9c62"/><path d="M0,-5 C-7,-13 -6,-23 0,-27 C7,-22 7,-12 0,-5Z" transform="rotate(144)" fill="#c3634c"/><path d="M0,-5 C-7,-13 -6,-23 0,-27 C7,-22 7,-12 0,-5Z" transform="rotate(216)" fill="#9a9c62"/><path d="M0,-5 C-7,-13 -6,-23 0,-27 C7,-22 7,-12 0,-5Z" transform="rotate(288)" fill="#c3634c"/><circle cy="-5" r="4.2" fill="#e0a640"/><circle cx="-1" cy="-6" r="1.3" fill="#f5e8c8"/></g></g><g transform="translate(309.6,787.1) scale(1.4)"><g>
<path d="M0,0 C2,-10 -2,-17 1,-25 M0,-10 Q-13,-17 -17,-10 Q-8,-7 0,-6 M0,-16 Q12,-23 17,-16 Q9,-13 0,-12" stroke="#46533b" stroke-width="2.2" fill="#69764d" stroke-linecap="round"/>
<path d="M0,-5 C-7,-13 -6,-23 0,-27 C7,-22 7,-12 0,-5Z" transform="rotate(0)" fill="#e0a640"/><path d="M0,-5 C-7,-13 -6,-23 0,-27 C7,-22 7,-12 0,-5Z" transform="rotate(72)" fill="#9a9c62"/><path d="M0,-5 C-7,-13 -6,-23 0,-27 C7,-22 7,-12 0,-5Z" transform="rotate(144)" fill="#e0a640"/><path d="M0,-5 C-7,-13 -6,-23 0,-27 C7,-22 7,-12 0,-5Z" transform="rotate(216)" fill="#9a9c62"/><path d="M0,-5 C-7,-13 -6,-23 0,-27 C7,-22 7,-12 0,-5Z" transform="rotate(288)" fill="#e0a640"/><circle cy="-5" r="4.2" fill="#e0a640"/><circle cx="-1" cy="-6" r="1.3" fill="#f5e8c8"/></g></g><g transform="translate(119.8,755.3) scale(0.9)"><g>
<path d="M0,0 C2,-10 -2,-17 1,-25 M0,-10 Q-13,-17 -17,-10 Q-8,-7 0,-6 M0,-16 Q12,-23 17,-16 Q9,-13 0,-12" stroke="#46533b" stroke-width="2.2" fill="#69764d" stroke-linecap="round"/>
<path d="M0,-5 C-7,-13 -6,-23 0,-27 C7,-22 7,-12 0,-5Z" transform="rotate(0)" fill="#ffffff"/><path d="M0,-5 C-7,-13 -6,-23 0,-27 C7,-22 7,-12 0,-5Z" transform="rotate(72)" fill="#9a9c62"/><path d="M0,-5 C-7,-13 -6,-23 0,-27 C7,-22 7,-12 0,-5Z" transform="rotate(144)" fill="#ffffff"/><path d="M0,-5 C-7,-13 -6,-23 0,-27 C7,-22 7,-12 0,-5Z" transform="rotate(216)" fill="#9a9c62"/><path d="M0,-5 C-7,-13 -6,-23 0,-27 C7,-22 7,-12 0,-5Z" transform="rotate(288)" fill="#ffffff"/><circle cy="-5" r="4.2" fill="#e0a640"/><circle cx="-1" cy="-6" r="1.3" fill="#f5e8c8"/></g></g><g transform="translate(340.3,787.6) scale(1.4)"><g>
<path d="M0,0 C2,-10 -2,-17 1,-25 M0,-10 Q-13,-17 -17,-10 Q-8,-7 0,-6 M0,-16 Q12,-23 17,-16 Q9,-13 0,-12" stroke="#46533b" stroke-width="2.2" fill="#69764d" stroke-linecap="round"/>
<path d="M0,-5 C-7,-13 -6,-23 0,-27 C7,-22 7,-12 0,-5Z" transform="rotate(0)" fill="#526f83"/><path d="M0,-5 C-7,-13 -6,-23 0,-27 C7,-22 7,-12 0,-5Z" transform="rotate(72)" fill="#9a9c62"/><path d="M0,-5 C-7,-13 -6,-23 0,-27 C7,-22 7,-12 0,-5Z" transform="rotate(144)" fill="#526f83"/><path d="M0,-5 C-7,-13 -6,-23 0,-27 C7,-22 7,-12 0,-5Z" transform="rotate(216)" fill="#9a9c62"/><path d="M0,-5 C-7,-13 -6,-23 0,-27 C7,-22 7,-12 0,-5Z" transform="rotate(288)" fill="#526f83"/><circle cy="-5" r="4.2" fill="#e0a640"/><circle cx="-1" cy="-6" r="1.3" fill="#f5e8c8"/></g></g><g transform="translate(904.3,776.4) scale(1.2)"><g>
<path d="M0,0 C2,-10 -2,-17 1,-25 M0,-10 Q-13,-17 -17,-10 Q-8,-7 0,-6 M0,-16 Q12,-23 17,-16 Q9,-13 0,-12" stroke="#46533b" stroke-width="2.2" fill="#69764d" stroke-linecap="round"/>
<path d="M0,-5 C-7,-13 -6,-23 0,-27 C7,-22 7,-12 0,-5Z" transform="rotate(0)" fill="#c3634c"/><path d="M0,-5 C-7,-13 -6,-23 0,-27 C7,-22 7,-12 0,-5Z" transform="rotate(72)" fill="#9a9c62"/><path d="M0,-5 C-7,-13 -6,-23 0,-27 C7,-22 7,-12 0,-5Z" transform="rotate(144)" fill="#c3634c"/><path d="M0,-5 C-7,-13 -6,-23 0,-27 C7,-22 7,-12 0,-5Z" transform="rotate(216)" fill="#9a9c62"/><path d="M0,-5 C-7,-13 -6,-23 0,-27 C7,-22 7,-12 0,-5Z" transform="rotate(288)" fill="#c3634c"/><circle cy="-5" r="4.2" fill="#e0a640"/><circle cx="-1" cy="-6" r="1.3" fill="#f5e8c8"/></g></g><g transform="translate(80.9,767.3) scale(1.1)"><g>
<path d="M0,0 C2,-10 -2,-17 1,-25 M0,-10 Q-13,-17 -17,-10 Q-8,-7 0,-6 M0,-16 Q12,-23 17,-16 Q9,-13 0,-12" stroke="#46533b" stroke-width="2.2" fill="#69764d" stroke-linecap="round"/>
<path d="M0,-5 C-7,-13 -6,-23 0,-27 C7,-22 7,-12 0,-5Z" transform="rotate(0)" fill="#e0a640"/><path d="M0,-5 C-7,-13 -6,-23 0,-27 C7,-22 7,-12 0,-5Z" transform="rotate(72)" fill="#9a9c62"/><path d="M0,-5 C-7,-13 -6,-23 0,-27 C7,-22 7,-12 0,-5Z" transform="rotate(144)" fill="#e0a640"/><path d="M0,-5 C-7,-13 -6,-23 0,-27 C7,-22 7,-12 0,-5Z" transform="rotate(216)" fill="#9a9c62"/><path d="M0,-5 C-7,-13 -6,-23 0,-27 C7,-22 7,-12 0,-5Z" transform="rotate(288)" fill="#e0a640"/><circle cy="-5" r="4.2" fill="#e0a640"/><circle cx="-1" cy="-6" r="1.3" fill="#f5e8c8"/></g></g><g transform="translate(340.9,788.1) scale(1.4)"><g>
<path d="M0,0 C2,-10 -2,-17 1,-25 M0,-10 Q-13,-17 -17,-10 Q-8,-7 0,-6 M0,-16 Q12,-23 17,-16 Q9,-13 0,-12" stroke="#46533b" stroke-width="2.2" fill="#69764d" stroke-linecap="round"/>
<path d="M0,-5 C-7,-13 -6,-23 0,-27 C7,-22 7,-12 0,-5Z" transform="rotate(0)" fill="#ffffff"/><path d="M0,-5 C-7,-13 -6,-23 0,-27 C7,-22 7,-12 0,-5Z" transform="rotate(72)" fill="#9a9c62"/><path d="M0,-5 C-7,-13 -6,-23 0,-27 C7,-22 7,-12 0,-5Z" transform="rotate(144)" fill="#ffffff"/><path d="M0,-5 C-7,-13 -6,-23 0,-27 C7,-22 7,-12 0,-5Z" transform="rotate(216)" fill="#9a9c62"/><path d="M0,-5 C-7,-13 -6,-23 0,-27 C7,-22 7,-12 0,-5Z" transform="rotate(288)" fill="#ffffff"/><circle cy="-5" r="4.2" fill="#e0a640"/><circle cx="-1" cy="-6" r="1.3" fill="#f5e8c8"/></g></g><g transform="translate(1128.2,774.9) scale(1.2)"><g>
<path d="M0,0 C2,-10 -2,-17 1,-25 M0,-10 Q-13,-17 -17,-10 Q-8,-7 0,-6 M0,-16 Q12,-23 17,-16 Q9,-13 0,-12" stroke="#46533b" stroke-width="2.2" fill="#69764d" stroke-linecap="round"/>
<path d="M0,-5 C-7,-13 -6,-23 0,-27 C7,-22 7,-12 0,-5Z" transform="rotate(0)" fill="#526f83"/><path d="M0,-5 C-7,-13 -6,-23 0,-27 C7,-22 7,-12 0,-5Z" transform="rotate(72)" fill="#9a9c62"/><path d="M0,-5 C-7,-13 -6,-23 0,-27 C7,-22 7,-12 0,-5Z" transform="rotate(144)" fill="#526f83"/><path d="M0,-5 C-7,-13 -6,-23 0,-27 C7,-22 7,-12 0,-5Z" transform="rotate(216)" fill="#9a9c62"/><path d="M0,-5 C-7,-13 -6,-23 0,-27 C7,-22 7,-12 0,-5Z" transform="rotate(288)" fill="#526f83"/><circle cy="-5" r="4.2" fill="#e0a640"/><circle cx="-1" cy="-6" r="1.3" fill="#f5e8c8"/></g></g><g transform="translate(690,248) scale(0.9)"><path d="M-31,0 C-22,-9 -13,-10 -3,-2 C5,-10 17,-11 29,-4 C19,-5 12,-1 5,7 C-3,2 -12,2 -20,8Z" fill="#343b39"/><circle cx="22" cy="-7" r="4" fill="#343b39"/><path d="M24,-7 L32,-4 L24,-3Z" fill="#dfa765"/></g>
<rect width="1200" height="800" fill="url(#gShade)" opacity=".34"/>
<rect width="1200" height="800" filter="url(#fGrain)" opacity=".16" style="mix-blend-mode:soft-light"/>
</svg>