<svg xmlns="http://www.w3.org/2000/svg" viewBox="0 0 490 830" width="490" height="830"><g><defs><linearGradient id="ginterior0" x1="0" y1="0" x2="0" y2="1"><stop offset="0" stop-color="#a6dcf5"/><stop offset="1" stop-color="#eef9ff"/></linearGradient></defs><rect width="490" height="350" fill="url(#ginterior0)"/>
<circle cx="415" cy="60" r="30" fill="#fff4b0" opacity=".9"/><ellipse cx="95" cy="66" rx="55" ry="16" fill="#fff" opacity=".85"/>
<path d="M0 235 Q120 190 250 232 T490 222 V350 H0Z" fill="#a4d78b"/><rect x="20" y="228" width="8" height="38" fill="#b88a55"/><rect x="80" y="228" width="8" height="38" fill="#b88a55"/><rect x="140" y="228" width="8" height="38" fill="#b88a55"/><rect x="200" y="228" width="8" height="38" fill="#b88a55"/><rect x="260" y="228" width="8" height="38" fill="#b88a55"/><rect x="320" y="228" width="8" height="38" fill="#b88a55"/><rect x="380" y="228" width="8" height="38" fill="#b88a55"/><rect x="440" y="228" width="8" height="38" fill="#b88a55"/><rect x="0" y="238" width="490" height="7" fill="#c9a06a"/><rect x="0" y="252" width="490" height="7" fill="#c9a06a"/>
<rect x="0" y="272" width="490" height="78" fill="#86c46d"/><ellipse cx="245" cy="312" rx="150" ry="12" fill="#000" opacity=".1"/><rect x="160" y="160" width="172" height="112" rx="10" fill="#e2b84b" stroke="#a8841f" stroke-width="3"/><path d="M168 170H322" fill="none" stroke="#c99a2a" stroke-width="2.5" stroke-linecap="round" stroke-linejoin="round" /><path d="M172 178.5H317" fill="none" stroke="#c99a2a" stroke-width="2.5" stroke-linecap="round" stroke-linejoin="round" /><path d="M176 187H312" fill="none" stroke="#c99a2a" stroke-width="2.5" stroke-linecap="round" stroke-linejoin="round" /><path d="M168 195.5H307" fill="none" stroke="#c99a2a" stroke-width="2.5" stroke-linecap="round" stroke-linejoin="round" /><path d="M172 204H322" fill="none" stroke="#c99a2a" stroke-width="2.5" stroke-linecap="round" stroke-linejoin="round" /><path d="M176 212.5H317" fill="none" stroke="#c99a2a" stroke-width="2.5" stroke-linecap="round" stroke-linejoin="round" /><path d="M168 221H312" fill="none" stroke="#c99a2a" stroke-width="2.5" stroke-linecap="round" stroke-linejoin="round" /><path d="M172 229.5H307" fill="none" stroke="#c99a2a" stroke-width="2.5" stroke-linecap="round" stroke-linejoin="round" /><path d="M176 238H322" fill="none" stroke="#c99a2a" stroke-width="2.5" stroke-linecap="round" stroke-linejoin="round" /><path d="M168 246.5H317" fill="none" stroke="#c99a2a" stroke-width="2.5" stroke-linecap="round" stroke-linejoin="round" /><path d="M172 255H312" fill="none" stroke="#c99a2a" stroke-width="2.5" stroke-linecap="round" stroke-linejoin="round" /><path d="M176 263.5H307" fill="none" stroke="#c99a2a" stroke-width="2.5" stroke-linecap="round" stroke-linejoin="round" /><rect x="204" y="160" width="9" height="112" rx="2" fill="#8a5a33" /><rect x="282" y="160" width="9" height="112" rx="2" fill="#8a5a33" /><path d="M178 160l-10-14M200 160l-4-18M300 160l8-16M320 160l12-12" fill="none" stroke="#e2b84b" stroke-width="3" stroke-linecap="round" stroke-linejoin="round" /><g transform="translate(152 188) rotate(25)"><path d="M-104 -12 L-44 -12 L-50 -29 L0 0 L-50 29 L-44 12 L-104 12 Z" fill="#e60012" stroke="#fff" stroke-width="7" stroke-linejoin="round"/><path d="M-104 -12 L-44 -12 L-50 -29 L0 0 L-50 29 L-44 12 L-104 12 Z" fill="#e60012" stroke="#e60012" stroke-width="1" stroke-linejoin="round"/></g></g><g transform="translate(0 350)"><rect width="490" height="480" fill="#f1ece1"/><rect width="490" height="480" fill="#fff" opacity=".18"/><circle cx="70" cy="72" r="64" fill="#fff" stroke="#2c58c9" stroke-width="10"/><line x1="70" y1="19" x2="70" y2="29" stroke="#2c58c9" stroke-width="4" stroke-linecap="round" transform="rotate(0 70 72)"/><line x1="70" y1="19" x2="70" y2="29" stroke="#2c58c9" stroke-width="4" stroke-linecap="round" transform="rotate(90 70 72)"/><line x1="70" y1="19" x2="70" y2="29" stroke="#2c58c9" stroke-width="4" stroke-linecap="round" transform="rotate(180 70 72)"/><line x1="70" y1="19" x2="70" y2="29" stroke="#2c58c9" stroke-width="4" stroke-linecap="round" transform="rotate(270 70 72)"/>
<line x1="70" y1="72" x2="70" y2="32" stroke="#222" stroke-width="5" stroke-linecap="round" transform="rotate(78 70 72)"/>
<line x1="70" y1="72" x2="70" y2="44" stroke="#222" stroke-width="4" stroke-linecap="round" transform="rotate(216 70 72)"/>
<circle cx="70" cy="72" r="5" fill="#222"/><g>
<line x1="245" y1="262" x2="245" y2="392" stroke="#111" stroke-width="4.5" stroke-linecap="round"/>
<path d="M245 392 L223 458 M245 392 L267 458" stroke="#111" stroke-width="4.5" stroke-linecap="round"/>
<ellipse cx="215" cy="466" rx="26" ry="9" fill="#111"/><ellipse cx="275" cy="466" rx="26" ry="9" fill="#111"/>
<path d="M245 292 Q193 270 193 214" fill="none" stroke="#111" stroke-width="4" stroke-linecap="round"/><path d="M245 292 Q285 300 311 318" fill="none" stroke="#111" stroke-width="4" stroke-linecap="round"/>
<circle cx="245" cy="210" r="52" fill="#fff" stroke="#111" stroke-width="4"/>
<circle cx="229" cy="206" r="4.5" fill="#111"/><circle cx="261" cy="206" r="4.5" fill="#111"/><path d="M221 196 L237 199 M269 196 L253 199" stroke="#111" stroke-width="3" stroke-linecap="round"/><path d="M233 230 Q245 223 257 230" fill="none" stroke="#111" stroke-width="3.5" stroke-linecap="round"/>
<path d="M205 256 L245 272 L285 256 L275 280 L245 288 L215 280Z" fill="#d62828"/>
<path d="M189 186 Q195 142 241 138 Q297 136 301 180 Q265 168 189 186Z" fill="#1e3a9a"/>
<circle cx="219" cy="146" r="8" fill="#d62828"/><circle cx="213" cy="150" r="5" fill="#fff"/><circle cx="223" cy="142" r="4" fill="#1e3a9a"/>
<text x="315" y="168" font-family="Arial" font-weight="700" font-size="46" fill="#222">?</text></g></g></svg>