<svg xmlns="http://www.w3.org/2000/svg" viewBox="0 0 490 350" width="490" height="350"><defs><linearGradient id="greligiao1" x1="0" y1="0" x2="0" y2="1"><stop offset="0" stop-color="#d9cfb8"/><stop offset="1" stop-color="#bfb08f"/></linearGradient></defs><rect width="490" height="350" fill="url(#greligiao1)"/><rect x="0" y="0" width="72" height="44" rx="3" fill="#000" opacity="0.03"/><rect x="76" y="0" width="72" height="44" rx="3" fill="#000" opacity="0.05"/><rect x="152" y="0" width="72" height="44" rx="3" fill="#000" opacity="0.07"/><rect x="228" y="0" width="72" height="44" rx="3" fill="#000" opacity="0.03"/><rect x="304" y="0" width="72" height="44" rx="3" fill="#000" opacity="0.05"/><rect x="380" y="0" width="72" height="44" rx="3" fill="#000" opacity="0.07"/><rect x="456" y="0" width="72" height="44" rx="3" fill="#000" opacity="0.03"/><rect x="-38" y="48" width="72" height="44" rx="3" fill="#000" opacity="0.05"/><rect x="38" y="48" width="72" height="44" rx="3" fill="#000" opacity="0.07"/><rect x="114" y="48" width="72" height="44" rx="3" fill="#000" opacity="0.03"/><rect x="190" y="48" width="72" height="44" rx="3" fill="#000" opacity="0.05"/><rect x="266" y="48" width="72" height="44" rx="3" fill="#000" opacity="0.07"/><rect x="342" y="48" width="72" height="44" rx="3" fill="#000" opacity="0.03"/><rect x="418" y="48" width="72" height="44" rx="3" fill="#000" opacity="0.05"/><rect x="0" y="96" width="72" height="44" rx="3" fill="#000" opacity="0.07"/><rect x="76" y="96" width="72" height="44" rx="3" fill="#000" opacity="0.03"/><rect x="152" y="96" width="72" height="44" rx="3" fill="#000" opacity="0.05"/><rect x="228" y="96" width="72" height="44" rx="3" fill="#000" opacity="0.07"/><rect x="304" y="96" width="72" height="44" rx="3" fill="#000" opacity="0.03"/><rect x="380" y="96" width="72" height="44" rx="3" fill="#000" opacity="0.05"/><rect x="456" y="96" width="72" height="44" rx="3" fill="#000" opacity="0.07"/><rect x="-38" y="144" width="72" height="44" rx="3" fill="#000" opacity="0.03"/><rect x="38" y="144" width="72" height="44" rx="3" fill="#000" opacity="0.05"/><rect x="114" y="144" width="72" height="44" rx="3" fill="#000" opacity="0.07"/><rect x="190" y="144" width="72" height="44" rx="3" fill="#000" opacity="0.03"/><rect x="266" y="144" width="72" height="44" rx="3" fill="#000" opacity="0.05"/><rect x="342" y="144" width="72" height="44" rx="3" fill="#000" opacity="0.07"/><rect x="418" y="144" width="72" height="44" rx="3" fill="#000" opacity="0.03"/><rect x="0" y="192" width="72" height="44" rx="3" fill="#000" opacity="0.05"/><rect x="76" y="192" width="72" height="44" rx="3" fill="#000" opacity="0.07"/><rect x="152" y="192" width="72" height="44" rx="3" fill="#000" opacity="0.03"/><rect x="228" y="192" width="72" height="44" rx="3" fill="#000" opacity="0.05"/><rect x="304" y="192" width="72" height="44" rx="3" fill="#000" opacity="0.07"/><rect x="380" y="192" width="72" height="44" rx="3" fill="#000" opacity="0.03"/><rect x="456" y="192" width="72" height="44" rx="3" fill="#000" opacity="0.05"/><rect x="-38" y="240" width="72" height="44" rx="3" fill="#000" opacity="0.07"/><rect x="38" y="240" width="72" height="44" rx="3" fill="#000" opacity="0.03"/><rect x="114" y="240" width="72" height="44" rx="3" fill="#000" opacity="0.05"/><rect x="190" y="240" width="72" height="44" rx="3" fill="#000" opacity="0.07"/><rect x="266" y="240" width="72" height="44" rx="3" fill="#000" opacity="0.03"/><rect x="342" y="240" width="72" height="44" rx="3" fill="#000" opacity="0.05"/><rect x="418" y="240" width="72" height="44" rx="3" fill="#000" opacity="0.07"/>
<rect x="0" y="278" width="490" height="72" fill="#9a8a6a"/><path d="M0 278h490" stroke="#7a6a4c" stroke-width="5"/>
<ellipse cx="245" cy="300" rx="150" ry="10" fill="#000" opacity=".18"/><circle cx="315" cy="130" r="9" fill="#8a2a2a" stroke="#3a1a10" stroke-width="1.5"/><circle cx="309.67156727579004" cy="149.89953848298467" r="6" fill="#6b3a2a" stroke="#3a1a10" stroke-width="1.5"/><circle cx="294.49747468305833" cy="166.76955262170048" r="6" fill="#6b3a2a" stroke="#3a1a10" stroke-width="1.5"/><circle cx="271.78784026555627" cy="178.0417356905869" r="6" fill="#6b3a2a" stroke="#3a1a10" stroke-width="1.5"/><circle cx="245" cy="182" r="9" fill="#8a2a2a" stroke="#3a1a10" stroke-width="1.5"/><circle cx="218.21215973444373" cy="178.0417356905869" r="6" fill="#6b3a2a" stroke="#3a1a10" stroke-width="1.5"/><circle cx="195.50252531694167" cy="166.76955262170048" r="6" fill="#6b3a2a" stroke="#3a1a10" stroke-width="1.5"/><circle cx="180.32843272420993" cy="149.89953848298467" r="6" fill="#6b3a2a" stroke="#3a1a10" stroke-width="1.5"/><circle cx="175" cy="130" r="9" fill="#8a2a2a" stroke="#3a1a10" stroke-width="1.5"/><circle cx="180.3284327242099" cy="110.10046151701533" r="6" fill="#6b3a2a" stroke="#3a1a10" stroke-width="1.5"/><circle cx="195.50252531694167" cy="93.23044737829953" r="6" fill="#6b3a2a" stroke="#3a1a10" stroke-width="1.5"/><circle cx="218.21215973444367" cy="81.9582643094131" r="6" fill="#6b3a2a" stroke="#3a1a10" stroke-width="1.5"/><circle cx="245" cy="78" r="9" fill="#8a2a2a" stroke="#3a1a10" stroke-width="1.5"/><circle cx="271.7878402655563" cy="81.9582643094131" r="6" fill="#6b3a2a" stroke="#3a1a10" stroke-width="1.5"/><circle cx="294.49747468305833" cy="93.23044737829952" r="6" fill="#6b3a2a" stroke="#3a1a10" stroke-width="1.5"/><circle cx="309.67156727579004" cy="110.1004615170153" r="6" fill="#6b3a2a" stroke="#3a1a10" stroke-width="1.5"/><circle cx="245" cy="188" r="6" fill="#6b3a2a" stroke="#3a1a10" stroke-width="1.5"/><circle cx="245" cy="204" r="6" fill="#6b3a2a" stroke="#3a1a10" stroke-width="1.5"/><circle cx="245" cy="220" r="6" fill="#6b3a2a" stroke="#3a1a10" stroke-width="1.5"/><circle cx="245" cy="236" r="6" fill="#6b3a2a" stroke="#3a1a10" stroke-width="1.5"/><circle cx="245" cy="182" r="10" fill="#8a2a2a" /><rect x="239" y="246" width="12" height="44" rx="3" fill="#c9a14a" stroke="#8a6a1a" stroke-width="2"/><rect x="226" y="258" width="38" height="12" rx="3" fill="#c9a14a" stroke="#8a6a1a" stroke-width="2"/></svg>