<svg xmlns="http://www.w3.org/2000/svg" viewBox="0 0 490 830" width="490" height="830"><g><defs><linearGradient id="gtecnologia5" x1="0" y1="0" x2="0" y2="1"><stop offset="0" stop-color="#dfe9f5"/><stop offset="1" stop-color="#c4d4ea"/></linearGradient></defs>
<rect width="490" height="350" fill="url(#gtecnologia5)"/>
<rect x="30" y="30" width="120" height="110" rx="6" fill="#fff8ec" opacity=".75"/><path d="M90 30v110M30 85h120" stroke="#e2cfae" stroke-width="4"/>
<rect x="0" y="262" width="490" height="88" fill="#7d8fa8"/><rect x="0" y="254" width="490" height="16" fill="#e8eef7"/>
<ellipse cx="245" cy="300" rx="190" ry="14" fill="#000" opacity=".08"/><rect x="188" y="78" width="114" height="186" rx="16" fill="#27303f" /><circle cx="245" cy="124" r="24" fill="#0f141c" /><circle cx="245" cy="124" r="14" fill="#475066" /><circle cx="245" cy="124" r="5" fill="#8aa0c0" /><circle cx="245" cy="208" r="44" fill="#0f141c" /><circle cx="245" cy="208" r="34" fill="#475066" /><circle cx="245" cy="208" r="20" fill="#0f141c" /><circle cx="245" cy="208" r="8" fill="#6b7a99" /><circle cx="280" cy="96" r="3.5" fill="#4ade80" /><g transform="translate(186 120) rotate(25)"><path d="M-104 -12 L-44 -12 L-50 -29 L0 0 L-50 29 L-44 12 L-104 12 Z" fill="#e60012" stroke="#fff" stroke-width="7" stroke-linejoin="round"/><path d="M-104 -12 L-44 -12 L-50 -29 L0 0 L-50 29 L-44 12 L-104 12 Z" fill="#e60012" stroke="#e60012" stroke-width="1" stroke-linejoin="round"/></g></g><g transform="translate(0 350)"><rect width="490" height="480" fill="#f1ece1"/><rect width="490" height="480" fill="#fff" opacity=".18"/><g transform="translate(245 40)"><rect x="-140" y="-18" width="280" height="38" rx="6" fill="none"/><rect x="-128" y="-9" width="20" height="20" fill="#22b24c" stroke="#128a38" stroke-width="2" rx="2"/><path d="M-124 1l6 6 10-12" fill="none" stroke="#fff" stroke-width="3.2" stroke-linecap="round" stroke-linejoin="round"/><text x="-100" y="8" font-family="Arial,sans-serif" font-size="22" font-weight="700" fill="#111">Une enceinte.</text></g><g>
<line x1="245" y1="262" x2="245" y2="392" stroke="#111" stroke-width="4.5" stroke-linecap="round"/>
<path d="M245 392 L223 458 M245 392 L267 458" stroke="#111" stroke-width="4.5" stroke-linecap="round"/>
<ellipse cx="215" cy="466" rx="26" ry="9" fill="#111"/><ellipse cx="275" cy="466" rx="26" ry="9" fill="#111"/>
<path d="M245 292 Q205 310 167 332" fill="none" stroke="#111" stroke-width="4" stroke-linecap="round"/><path d="M245 292 Q285 308 315 322" fill="none" stroke="#111" stroke-width="4" stroke-linecap="round"/>
<circle cx="245" cy="210" r="52" fill="#fff" stroke="#111" stroke-width="4"/>
<circle cx="229" cy="205" r="4.5" fill="#111"/><circle cx="261" cy="205" r="4.5" fill="#111"/><path d="M229 224 Q245 242 261 224" fill="none" stroke="#111" stroke-width="3.5" stroke-linecap="round"/>
<path d="M205 256 L245 272 L285 256 L275 280 L245 288 L215 280Z" fill="#d62828"/>
<path d="M189 186 Q195 142 241 138 Q297 136 301 180 Q265 168 189 186Z" fill="#1e3a9a"/>
<circle cx="219" cy="146" r="8" fill="#d62828"/><circle cx="213" cy="150" r="5" fill="#fff"/><circle cx="223" cy="142" r="4" fill="#1e3a9a"/>
</g></g></svg>