<svg xmlns="http://www.w3.org/2000/svg" viewBox="0 0 490 350" width="490" height="350"><defs><linearGradient id="gtecnologia8" x1="0" y1="0" x2="0" y2="1"><stop offset="0" stop-color="#0b1a3a"/><stop offset="1" stop-color="#2b4a8a"/></linearGradient></defs><rect width="490" height="350" fill="url(#gtecnologia8)"/><circle cx="40" cy="40" r="2.4" fill="#fff" opacity="0.55"/><circle cx="110" cy="90" r="1.6" fill="#fff" opacity="0.65"/><circle cx="190" cy="30" r="1.6" fill="#fff" opacity="0.75"/><circle cx="300" cy="60" r="2.4" fill="#fff" opacity="0.8500000000000001"/><circle cx="370" cy="28" r="1.6" fill="#fff" opacity="0.55"/><circle cx="440" cy="100" r="1.6" fill="#fff" opacity="0.65"/><circle cx="70" cy="150" r="2.4" fill="#fff" opacity="0.75"/><circle cx="420" cy="170" r="1.6" fill="#fff" opacity="0.8500000000000001"/><circle cx="330" cy="130" r="1.6" fill="#fff" opacity="0.55"/><circle cx="150" cy="140" r="2.4" fill="#fff" opacity="0.65"/>
<path d="M0 262 Q120 225 250 258 T490 250 V350 H0Z" fill="#27403a"/><rect x="0" y="278" width="490" height="72" fill="#27403a"/>
<ellipse cx="245" cy="312" rx="150" ry="12" fill="#000" opacity=".25"/><g transform="rotate(-18 245 170)"><rect x="100" y="148" width="82" height="44" rx="2" fill="#2e5fb8" stroke="#9fc2ff" stroke-width="2"/><path d="M127 148V192M155 148V192M100 170H182" fill="none" stroke="#9fc2ff" stroke-width="2" stroke-linecap="round" stroke-linejoin="round" /><rect x="308" y="148" width="82" height="44" rx="2" fill="#2e5fb8" stroke="#9fc2ff" stroke-width="2"/><path d="M335 148V192M363 148V192M308 170H390" fill="none" stroke="#9fc2ff" stroke-width="2" stroke-linecap="round" stroke-linejoin="round" /><path d="M182 170H198M292 170H308" fill="none" stroke="#cfd6e3" stroke-width="5" stroke-linecap="round" stroke-linejoin="round" /><rect x="198" y="138" width="94" height="64" rx="8" fill="#d9dee8" stroke="#8d97a8" stroke-width="3"/><rect x="208" y="148" width="74" height="44" rx="4" fill="#e5b73b" /><path d="M245 138V112" fill="none" stroke="#cfd6e3" stroke-width="4" stroke-linecap="round" stroke-linejoin="round" /><path d="M215 98Q245 70 275 98Q245 112 215 98Z" fill="#eef3fa" stroke="#8d97a8" stroke-width="2"/><circle cx="245" cy="90" r="4" fill="#ef4444" /></g></svg>