<svg xmlns="http://www.w3.org/2000/svg" viewBox="0 0 490 350" width="490" height="350"><defs><linearGradient id="ggastronomia5" x1="0" y1="0" x2="0" y2="1"><stop offset="0" stop-color="#f7f1e3"/><stop offset="1" stop-color="#efe3cc"/></linearGradient></defs>
<rect width="490" height="350" fill="url(#ggastronomia5)"/>
<rect x="30" y="30" width="120" height="110" rx="6" fill="#fff8ec" opacity=".75"/><path d="M90 30v110M30 85h120" stroke="#e2cfae" stroke-width="4"/>
<rect x="0" y="262" width="490" height="88" fill="#a67c52"/><rect x="0" y="254" width="490" height="16" fill="#d8b88a"/>
<ellipse cx="245" cy="300" rx="190" ry="14" fill="#000" opacity=".08"/><rect x="138" y="128" width="22" height="12" rx="5" fill="#8d97a8" /><rect x="330" y="128" width="22" height="12" rx="5" fill="#8d97a8" /><path d="M140 134H350Q350 250 245 268Q140 250 140 134Z" fill="#cfd6e3" stroke="#8d97a8" stroke-width="4"/><ellipse cx="245" cy="134" rx="105" ry="14" fill="#aab4c3" stroke="#8d97a8" stroke-width="3"/><circle cx="190" cy="170" r="5" fill="#6b7688" /><circle cx="230" cy="180" r="5" fill="#6b7688" /><circle cx="270" cy="180" r="5" fill="#6b7688" /><circle cx="310" cy="170" r="5" fill="#6b7688" /><circle cx="210" cy="210" r="5" fill="#6b7688" /><circle cx="250" cy="214" r="5" fill="#6b7688" /><circle cx="290" cy="210" r="5" fill="#6b7688" /><circle cx="235" cy="244" r="5" fill="#6b7688" /><circle cx="265" cy="244" r="5" fill="#6b7688" /><rect x="224" y="262" width="42" height="12" rx="3" fill="#8d97a8" /></svg>